<svg xmlns="http://www.w3.org/2000/svg" viewBox="0 0 1500 500" width="1500" height="500">
  <defs>
    <style>
      @import url('https://fonts.googleapis.com/css2?family=Orbitron:wght@800&amp;family=Lato:wght@300;400;700&amp;display=swap');
      .name        { font-family: 'Orbitron', sans-serif; font-size: 80px; font-weight: 800; fill: #F8FAFC; letter-spacing: 3px; }
      .eyebrow     { font-family: 'Lato', sans-serif; font-size: 15px; font-weight: 700; fill: #00D2FF; letter-spacing: 5px; }
      .tagline     { font-family: 'Lato', sans-serif; font-size: 26px; font-weight: 300; fill: #CBD5E0; }
      .tagline-hi  { font-family: 'Lato', sans-serif; font-size: 26px; font-weight: 400; fill: #00D2FF; }
      .url         { font-family: 'Lato', sans-serif; font-size: 13px; font-weight: 400; fill: #4A5568; letter-spacing: 2px; }
      .badge-text  { font-family: 'Orbitron', sans-serif; font-size: 16px; font-weight: 700; fill: #FF6B35; letter-spacing: 4px; }
      .cred        { font-family: 'Lato', sans-serif; font-size: 12px; font-weight: 700; fill: #A0AEC0; letter-spacing: 5px; }
    </style>
    <radialGradient id="vig" cx="38%" cy="50%" r="65%" gradientUnits="objectBoundingBox"><stop offset="35%" stop-color="#040812" stop-opacity="0"/><stop offset="100%" stop-color="#040812" stop-opacity="0.72"/></radialGradient>
    
    <radialGradient id="neb_blue" cx="22%" cy="14%" r="38%" gradientUnits="objectBoundingBox">
      <stop offset="0%"   stop-color="#40e0ff" stop-opacity="0.38"/>
      <stop offset="40%"  stop-color="#0099cc" stop-opacity="0.18"/>
      <stop offset="100%" stop-color="#000000" stop-opacity="0"/>
    </radialGradient>
    <radialGradient id="neb_mag" cx="10%" cy="32%" r="34%" gradientUnits="objectBoundingBox">
      <stop offset="0%"   stop-color="#dd44cc" stop-opacity="0.32"/>
      <stop offset="40%"  stop-color="#881166" stop-opacity="0.14"/>
      <stop offset="100%" stop-color="#000000" stop-opacity="0"/>
    </radialGradient>
    <radialGradient id="neb_core" cx="16%" cy="22%" r="20%" gradientUnits="objectBoundingBox">
      <stop offset="0%"   stop-color="#ffffff" stop-opacity="0.10"/>
      <stop offset="100%" stop-color="#000000" stop-opacity="0"/>
    </radialGradient>
    <radialGradient id="fg0" cx="50%" cy="50%" r="50%"><stop offset="0%" stop-color="#00D2FF" stop-opacity="0.22"/><stop offset="100%" stop-color="#00D2FF" stop-opacity="0"/></radialGradient>
  <circle cx="1050" cy="80" r="16.8" fill="url(#fg0)"/>
  <circle cx="1050" cy="80" r="2.4" fill="rgb(210,240,255)" opacity="0.92"/>
  <radialGradient id="fg1" cx="50%" cy="50%" r="50%"><stop offset="0%" stop-color="#00D2FF" stop-opacity="0.22"/><stop offset="100%" stop-color="#00D2FF" stop-opacity="0"/></radialGradient>
  <circle cx="1305" cy="290" r="14.0" fill="url(#fg1)"/>
  <circle cx="1305" cy="290" r="2.0" fill="rgb(210,240,255)" opacity="0.92"/>
  <radialGradient id="fg2" cx="50%" cy="50%" r="50%"><stop offset="0%" stop-color="#00D2FF" stop-opacity="0.22"/><stop offset="100%" stop-color="#00D2FF" stop-opacity="0"/></radialGradient>
  <circle cx="825" cy="410" r="11.9" fill="url(#fg2)"/>
  <circle cx="825" cy="410" r="1.7" fill="rgb(210,240,255)" opacity="0.92"/>
  <radialGradient id="fg3" cx="50%" cy="50%" r="50%"><stop offset="0%" stop-color="#00D2FF" stop-opacity="0.22"/><stop offset="100%" stop-color="#00D2FF" stop-opacity="0"/></radialGradient>
  <circle cx="1410" cy="140" r="19.599999999999998" fill="url(#fg3)"/>
  <circle cx="1410" cy="140" r="2.8" fill="rgb(210,240,255)" opacity="0.92"/>
  <radialGradient id="fg4" cx="50%" cy="50%" r="50%"><stop offset="0%" stop-color="#00D2FF" stop-opacity="0.22"/><stop offset="100%" stop-color="#00D2FF" stop-opacity="0"/></radialGradient>
  <circle cx="930" cy="60" r="10.5" fill="url(#fg4)"/>
  <circle cx="930" cy="60" r="1.5" fill="rgb(210,240,255)" opacity="0.92"/>
  </defs>

  <rect width="1500" height="500" fill="#060D1A"/>
  <circle cx="288.5" cy="143.4" r="0.21" fill="rgb(248,250,252)" opacity="0.28"/>
  <circle cx="1103.5" cy="102.7" r="1.08" fill="rgb(248,250,252)" opacity="0.34"/>
  <circle cx="1003.2" cy="167.8" r="0.29" fill="rgb(248,250,252)" opacity="0.29"/>
  <circle cx="426.3" cy="131.5" r="0.36" fill="rgb(180,225,255)" opacity="0.31"/>
  <circle cx="181.8" cy="330.4" r="0.18" fill="rgb(180,225,255)" opacity="0.64"/>
  <circle cx="1103.6" cy="481.0" r="0.8" fill="rgb(248,250,252)" opacity="0.39"/>
  <circle cx="1427.6" cy="153.0" r="0.72" fill="rgb(248,250,252)" opacity="0.43"/>
  <circle cx="518.9" cy="211.7" r="0.35" fill="rgb(248,250,252)" opacity="0.62"/>
  <circle cx="802.7" cy="123.4" r="0.43" fill="rgb(248,250,252)" opacity="0.59"/>
  <circle cx="618.7" cy="176.2" r="1.82" fill="rgb(248,250,252)" opacity="0.52"/>
  <circle cx="1048.3" cy="324.6" r="0.83" fill="rgb(180,225,255)" opacity="0.25"/>
  <circle cx="1241.0" cy="97.0" r="0.41" fill="rgb(248,250,252)" opacity="0.51"/>
  <circle cx="1058.5" cy="458.6" r="0.16" fill="rgb(248,250,252)" opacity="0.46"/>
  <circle cx="447.6" cy="492.1" r="0.31" fill="rgb(248,250,252)" opacity="0.51"/>
  <circle cx="456.0" cy="479.4" r="0.31" fill="rgb(248,250,252)" opacity="0.34"/>
  <circle cx="244.5" cy="431.3" r="0.11" fill="rgb(248,250,252)" opacity="0.23"/>
  <circle cx="1437.1" cy="120.5" r="0.41" fill="rgb(248,250,252)" opacity="0.26"/>
  <circle cx="916.3" cy="288.6" r="0.18" fill="rgb(248,250,252)" opacity="0.6"/>
  <circle cx="778.6" cy="372.7" r="0.24" fill="rgb(180,225,255)" opacity="0.23"/>
  <circle cx="124.6" cy="26.6" r="0.36" fill="rgb(248,250,252)" opacity="0.54"/>
  <circle cx="619.4" cy="141.9" r="0.21" fill="rgb(248,250,252)" opacity="0.39"/>
  <circle cx="808.8" cy="140.7" r="0.28" fill="rgb(248,250,252)" opacity="0.5"/>
  <circle cx="597.6" cy="125.5" r="1.34" fill="rgb(248,250,252)" opacity="0.76"/>
  <circle cx="441.3" cy="198.6" r="0.11" fill="rgb(248,250,252)" opacity="0.58"/>
  <circle cx="1216.0" cy="144.9" r="1.66" fill="rgb(248,250,252)" opacity="0.84"/>
  <circle cx="1154.7" cy="201.2" r="0.22" fill="rgb(248,250,252)" opacity="0.47"/>
  <circle cx="726.8" cy="408.9" r="0.74" fill="rgb(248,250,252)" opacity="0.48"/>
  <circle cx="97.4" cy="106.5" r="0.18" fill="rgb(248,250,252)" opacity="0.25"/>
  <circle cx="402.5" cy="244.9" r="0.25" fill="rgb(248,250,252)" opacity="0.21"/>
  <circle cx="671.7" cy="412.5" r="0.11" fill="rgb(180,225,255)" opacity="0.3"/>
  <circle cx="1086.6" cy="195.2" r="0.24" fill="rgb(248,250,252)" opacity="0.58"/>
  <circle cx="807.1" cy="481.0" r="0.67" fill="rgb(248,250,252)" opacity="0.36"/>
  <circle cx="980.3" cy="414.9" r="0.2" fill="rgb(248,250,252)" opacity="0.43"/>
  <circle cx="180.9" cy="477.8" r="0.82" fill="rgb(180,225,255)" opacity="0.34"/>
  <circle cx="763.6" cy="90.5" r="0.67" fill="rgb(180,225,255)" opacity="0.42"/>
  <circle cx="463.0" cy="255.7" r="1.82" fill="rgb(248,250,252)" opacity="0.5"/>
  <circle cx="163.6" cy="112.3" r="0.34" fill="rgb(180,225,255)" opacity="0.37"/>
  <circle cx="214.5" cy="105.3" r="0.86" fill="rgb(248,250,252)" opacity="0.59"/>
  <circle cx="1313.3" cy="101.3" r="0.42" fill="rgb(248,250,252)" opacity="0.23"/>
  <circle cx="1122.1" cy="392.7" r="0.84" fill="rgb(248,250,252)" opacity="0.3"/>
  <circle cx="1052.2" cy="12.3" r="0.11" fill="rgb(248,250,252)" opacity="0.61"/>
  <circle cx="1026.7" cy="454.8" r="1.05" fill="rgb(248,250,252)" opacity="0.4"/>
  <circle cx="1048.7" cy="228.6" r="0.11" fill="rgb(248,250,252)" opacity="0.28"/>
  <circle cx="1260.3" cy="143.9" r="0.42" fill="rgb(248,250,252)" opacity="0.26"/>
  <circle cx="485.9" cy="11.6" r="0.25" fill="rgb(248,250,252)" opacity="0.36"/>
  <circle cx="802.5" cy="123.1" r="0.14" fill="rgb(248,250,252)" opacity="0.44"/>
  <circle cx="753.1" cy="267.2" r="0.4" fill="rgb(180,225,255)" opacity="0.55"/>
  <circle cx="568.2" cy="52.7" r="0.11" fill="rgb(248,250,252)" opacity="0.44"/>
  <circle cx="426.3" cy="476.5" r="0.42" fill="rgb(248,250,252)" opacity="0.51"/>
  <circle cx="646.0" cy="131.0" r="1.03" fill="rgb(248,250,252)" opacity="0.51"/>
  <circle cx="1458.1" cy="66.9" r="0.81" fill="rgb(248,250,252)" opacity="0.32"/>
  <circle cx="804.6" cy="116.4" r="0.26" fill="rgb(248,250,252)" opacity="0.48"/>
  <circle cx="965.6" cy="190.3" r="1.25" fill="rgb(180,225,255)" opacity="0.7"/>
  <circle cx="1010.5" cy="195.6" r="0.44" fill="rgb(248,250,252)" opacity="0.34"/>
  <circle cx="1086.7" cy="287.8" r="0.4" fill="rgb(248,250,252)" opacity="0.34"/>
  <circle cx="401.1" cy="395.2" r="0.55" fill="rgb(248,250,252)" opacity="0.21"/>
  <circle cx="164.6" cy="47.3" r="0.42" fill="rgb(248,250,252)" opacity="0.64"/>
  <circle cx="871.4" cy="478.1" r="0.26" fill="rgb(248,250,252)" opacity="0.34"/>
  <circle cx="413.1" cy="79.2" r="0.17" fill="rgb(248,250,252)" opacity="0.44"/>
  <circle cx="120.8" cy="144.2" r="0.32" fill="rgb(248,250,252)" opacity="0.51"/>
  <circle cx="1426.9" cy="438.7" r="0.26" fill="rgb(248,250,252)" opacity="0.44"/>
  <circle cx="733.4" cy="356.5" r="0.12" fill="rgb(248,250,252)" opacity="0.64"/>
  <circle cx="517.0" cy="385.1" r="0.29" fill="rgb(248,250,252)" opacity="0.33"/>
  <circle cx="489.5" cy="272.0" r="1.03" fill="rgb(248,250,252)" opacity="0.53"/>
  <circle cx="570.3" cy="250.3" r="0.2" fill="rgb(180,225,255)" opacity="0.44"/>
  <circle cx="468.7" cy="426.4" r="0.31" fill="rgb(180,225,255)" opacity="0.61"/>
  <circle cx="1258.0" cy="237.8" r="0.12" fill="rgb(248,250,252)" opacity="0.32"/>
  <circle cx="1275.1" cy="429.3" r="0.19" fill="rgb(248,250,252)" opacity="0.36"/>
  <circle cx="282.2" cy="384.8" r="0.34" fill="rgb(248,250,252)" opacity="0.41"/>
  <circle cx="135.5" cy="149.8" r="0.34" fill="rgb(248,250,252)" opacity="0.44"/>
  <circle cx="1122.5" cy="440.4" r="0.13" fill="rgb(180,225,255)" opacity="0.57"/>
  <circle cx="820.6" cy="310.1" r="0.27" fill="rgb(248,250,252)" opacity="0.42"/>
  <circle cx="973.8" cy="327.1" r="0.3" fill="rgb(180,225,255)" opacity="0.51"/>
  <circle cx="211.0" cy="148.9" r="0.4" fill="rgb(248,250,252)" opacity="0.23"/>
  <circle cx="998.6" cy="121.6" r="0.64" fill="rgb(248,250,252)" opacity="0.37"/>
  <circle cx="1494.1" cy="415.6" r="0.38" fill="rgb(180,225,255)" opacity="0.21"/>
  <circle cx="83.9" cy="370.9" r="0.12" fill="rgb(248,250,252)" opacity="0.24"/>
  <circle cx="1093.1" cy="409.6" r="0.99" fill="rgb(248,250,252)" opacity="0.34"/>
  <circle cx="68.8" cy="187.6" r="1.46" fill="rgb(180,225,255)" opacity="0.57"/>
  <circle cx="882.9" cy="353.3" r="0.67" fill="rgb(180,225,255)" opacity="0.45"/>
  <circle cx="991.6" cy="285.9" r="0.15" fill="rgb(248,250,252)" opacity="0.64"/>
  <circle cx="1151.8" cy="108.8" r="0.27" fill="rgb(248,250,252)" opacity="0.33"/>
  <circle cx="473.3" cy="89.9" r="0.3" fill="rgb(180,225,255)" opacity="0.48"/>
  <circle cx="1488.9" cy="202.5" r="0.24" fill="rgb(180,225,255)" opacity="0.48"/>
  <circle cx="1493.0" cy="257.0" r="1.02" fill="rgb(248,250,252)" opacity="0.32"/>
  <circle cx="1390.6" cy="374.5" r="0.13" fill="rgb(248,250,252)" opacity="0.27"/>
  <circle cx="863.3" cy="146.5" r="0.12" fill="rgb(248,250,252)" opacity="0.29"/>
  <circle cx="1035.4" cy="105.8" r="0.59" fill="rgb(248,250,252)" opacity="0.58"/>
  <circle cx="811.4" cy="205.0" r="0.25" fill="rgb(180,225,255)" opacity="0.3"/>
  <circle cx="730.2" cy="402.8" r="0.19" fill="rgb(248,250,252)" opacity="0.41"/>
  <circle cx="805.9" cy="263.4" r="0.17" fill="rgb(248,250,252)" opacity="0.25"/>
  <circle cx="1095.1" cy="153.3" r="0.43" fill="rgb(180,225,255)" opacity="0.45"/>
  <circle cx="848.7" cy="328.0" r="0.37" fill="rgb(248,250,252)" opacity="0.63"/>
  <circle cx="890.0" cy="221.7" r="0.95" fill="rgb(248,250,252)" opacity="0.43"/>
  <circle cx="1106.3" cy="293.7" r="0.16" fill="rgb(248,250,252)" opacity="0.63"/>
  <circle cx="1015.7" cy="391.2" r="0.24" fill="rgb(248,250,252)" opacity="0.27"/>
  <circle cx="1042.6" cy="90.7" r="0.27" fill="rgb(248,250,252)" opacity="0.64"/>
  <circle cx="1280.7" cy="32.7" r="1.04" fill="rgb(248,250,252)" opacity="0.48"/>
  <circle cx="1422.7" cy="247.3" r="1.08" fill="rgb(248,250,252)" opacity="0.4"/>
  <circle cx="313.4" cy="186.3" r="0.12" fill="rgb(248,250,252)" opacity="0.58"/>
  <circle cx="940.7" cy="159.6" r="0.2" fill="rgb(248,250,252)" opacity="0.54"/>
  <circle cx="1497.0" cy="306.6" r="0.1" fill="rgb(248,250,252)" opacity="0.46"/>
  <circle cx="461.1" cy="63.0" r="0.35" fill="rgb(180,225,255)" opacity="0.36"/>
  <circle cx="1246.7" cy="466.9" r="0.34" fill="rgb(248,250,252)" opacity="0.59"/>
  <circle cx="1194.6" cy="254.0" r="0.38" fill="rgb(248,250,252)" opacity="0.51"/>
  <circle cx="1261.7" cy="354.5" r="0.38" fill="rgb(248,250,252)" opacity="0.37"/>
  <circle cx="335.4" cy="3.9" r="0.35" fill="rgb(180,225,255)" opacity="0.61"/>
  <circle cx="44.9" cy="309.4" r="0.17" fill="rgb(180,225,255)" opacity="0.56"/>
  <circle cx="902.6" cy="182.1" r="0.25" fill="rgb(180,225,255)" opacity="0.22"/>
  <circle cx="1182.9" cy="332.2" r="0.2" fill="rgb(248,250,252)" opacity="0.21"/>
  <circle cx="1027.1" cy="144.0" r="0.19" fill="rgb(248,250,252)" opacity="0.58"/>
  <circle cx="852.1" cy="199.7" r="0.3" fill="rgb(248,250,252)" opacity="0.61"/>
  <circle cx="201.3" cy="56.1" r="0.18" fill="rgb(248,250,252)" opacity="0.33"/>
  <circle cx="137.2" cy="67.8" r="0.6" fill="rgb(180,225,255)" opacity="0.6"/>
  <circle cx="1453.4" cy="144.7" r="0.18" fill="rgb(248,250,252)" opacity="0.36"/>
  <circle cx="290.9" cy="147.9" r="0.39" fill="rgb(248,250,252)" opacity="0.38"/>
  <circle cx="611.1" cy="73.9" r="0.13" fill="rgb(180,225,255)" opacity="0.35"/>
  <circle cx="1228.7" cy="165.7" r="1.99" fill="rgb(248,250,252)" opacity="0.66"/>
  <circle cx="1492.3" cy="88.5" r="0.1" fill="rgb(180,225,255)" opacity="0.34"/>
  <circle cx="565.0" cy="265.3" r="2.04" fill="rgb(248,250,252)" opacity="0.71"/>
  <circle cx="29.4" cy="224.2" r="0.44" fill="rgb(248,250,252)" opacity="0.27"/>
  <circle cx="963.4" cy="110.7" r="0.29" fill="rgb(248,250,252)" opacity="0.25"/>
  <circle cx="1036.5" cy="130.7" r="0.82" fill="rgb(248,250,252)" opacity="0.53"/>
  <circle cx="430.4" cy="12.5" r="0.84" fill="rgb(248,250,252)" opacity="0.39"/>
  <circle cx="513.8" cy="213.8" r="0.4" fill="rgb(248,250,252)" opacity="0.58"/>
  <circle cx="855.8" cy="5.6" r="0.86" fill="rgb(248,250,252)" opacity="0.34"/>
  <circle cx="179.4" cy="158.9" r="0.35" fill="rgb(248,250,252)" opacity="0.45"/>
  <circle cx="303.6" cy="111.7" r="0.23" fill="rgb(248,250,252)" opacity="0.45"/>
  <circle cx="1308.9" cy="365.2" r="0.23" fill="rgb(248,250,252)" opacity="0.28"/>
  <circle cx="243.1" cy="462.0" r="0.15" fill="rgb(248,250,252)" opacity="0.25"/>
  <circle cx="927.3" cy="341.2" r="0.33" fill="rgb(180,225,255)" opacity="0.5"/>
  <circle cx="1116.1" cy="404.3" r="0.54" fill="rgb(248,250,252)" opacity="0.41"/>
  <circle cx="913.6" cy="75.4" r="0.4" fill="rgb(248,250,252)" opacity="0.45"/>
  <circle cx="1133.0" cy="476.8" r="0.92" fill="rgb(248,250,252)" opacity="0.37"/>
  <circle cx="380.8" cy="394.4" r="0.91" fill="rgb(248,250,252)" opacity="0.23"/>
  <circle cx="1249.8" cy="205.8" r="1.07" fill="rgb(248,250,252)" opacity="0.61"/>
  <circle cx="998.2" cy="186.5" r="0.29" fill="rgb(180,225,255)" opacity="0.34"/>
  <circle cx="891.5" cy="70.5" r="0.21" fill="rgb(180,225,255)" opacity="0.48"/>
  <circle cx="246.7" cy="350.1" r="0.32" fill="rgb(248,250,252)" opacity="0.63"/>
  <circle cx="10.1" cy="360.7" r="0.7" fill="rgb(248,250,252)" opacity="0.39"/>
  <circle cx="838.8" cy="272.8" r="0.26" fill="rgb(180,225,255)" opacity="0.21"/>
  <circle cx="179.6" cy="314.6" r="1.92" fill="rgb(248,250,252)" opacity="0.82"/>
  <circle cx="716.1" cy="300.5" r="0.44" fill="rgb(248,250,252)" opacity="0.44"/>
  <circle cx="164.3" cy="41.9" r="0.18" fill="rgb(248,250,252)" opacity="0.47"/>
  <circle cx="776.8" cy="115.4" r="0.31" fill="rgb(180,225,255)" opacity="0.62"/>
  <circle cx="653.7" cy="209.7" r="0.21" fill="rgb(248,250,252)" opacity="0.61"/>
  <circle cx="819.6" cy="118.8" r="0.29" fill="rgb(180,225,255)" opacity="0.43"/>
  <circle cx="125.1" cy="126.6" r="0.22" fill="rgb(248,250,252)" opacity="0.53"/>
  <circle cx="244.7" cy="296.2" r="0.44" fill="rgb(248,250,252)" opacity="0.4"/>
  <circle cx="988.6" cy="157.4" r="0.27" fill="rgb(248,250,252)" opacity="0.39"/>
  <circle cx="1233.5" cy="232.3" r="0.4" fill="rgb(248,250,252)" opacity="0.42"/>
  <circle cx="446.9" cy="313.4" r="0.58" fill="rgb(180,225,255)" opacity="0.56"/>
  <circle cx="1086.5" cy="194.8" r="0.7" fill="rgb(248,250,252)" opacity="0.61"/>
  <circle cx="171.6" cy="113.1" r="0.45" fill="rgb(180,225,255)" opacity="0.5"/>
  <circle cx="824.8" cy="254.5" r="0.63" fill="rgb(248,250,252)" opacity="0.54"/>
  <circle cx="489.8" cy="118.0" r="0.19" fill="rgb(248,250,252)" opacity="0.57"/>
  <circle cx="834.4" cy="144.2" r="0.86" fill="rgb(248,250,252)" opacity="0.54"/>
  <circle cx="818.0" cy="354.1" r="0.43" fill="rgb(180,225,255)" opacity="0.4"/>
  <circle cx="85.6" cy="103.0" r="0.22" fill="rgb(248,250,252)" opacity="0.25"/>
  <circle cx="898.1" cy="104.0" r="0.27" fill="rgb(248,250,252)" opacity="0.49"/>
  <circle cx="823.6" cy="35.3" r="0.12" fill="rgb(248,250,252)" opacity="0.48"/>
  <circle cx="494.9" cy="93.6" r="0.22" fill="rgb(248,250,252)" opacity="0.21"/>
  <circle cx="1395.4" cy="55.7" r="0.34" fill="rgb(248,250,252)" opacity="0.26"/>
  <circle cx="1063.2" cy="250.7" r="0.22" fill="rgb(248,250,252)" opacity="0.64"/>
  <circle cx="1390.8" cy="212.2" r="0.5" fill="rgb(248,250,252)" opacity="0.55"/>
  <circle cx="571.6" cy="449.4" r="0.28" fill="rgb(180,225,255)" opacity="0.23"/>
  <circle cx="1449.0" cy="441.1" r="1.08" fill="rgb(248,250,252)" opacity="0.31"/>
  <circle cx="247.2" cy="312.8" r="0.37" fill="rgb(248,250,252)" opacity="0.32"/>
  <circle cx="352.6" cy="393.5" r="0.16" fill="rgb(180,225,255)" opacity="0.33"/>
  <circle cx="836.5" cy="101.7" r="0.18" fill="rgb(180,225,255)" opacity="0.42"/>
  <circle cx="683.4" cy="263.9" r="0.41" fill="rgb(248,250,252)" opacity="0.34"/>
  <circle cx="1052.5" cy="295.6" r="0.89" fill="rgb(248,250,252)" opacity="0.51"/>
  <circle cx="523.4" cy="285.6" r="0.17" fill="rgb(248,250,252)" opacity="0.43"/>
  <circle cx="1088.7" cy="11.8" r="0.24" fill="rgb(180,225,255)" opacity="0.48"/>
  <circle cx="834.3" cy="414.0" r="0.33" fill="rgb(248,250,252)" opacity="0.22"/>
  <circle cx="1324.8" cy="412.0" r="1.01" fill="rgb(248,250,252)" opacity="0.54"/>
  <circle cx="1246.2" cy="435.5" r="0.22" fill="rgb(248,250,252)" opacity="0.36"/>
  <circle cx="333.6" cy="343.4" r="0.17" fill="rgb(180,225,255)" opacity="0.65"/>
  <circle cx="180.3" cy="323.8" r="0.35" fill="rgb(248,250,252)" opacity="0.38"/>
  <circle cx="313.2" cy="28.7" r="0.29" fill="rgb(248,250,252)" opacity="0.43"/>
  <circle cx="1370.9" cy="263.3" r="0.35" fill="rgb(248,250,252)" opacity="0.58"/>
  <circle cx="1334.9" cy="335.6" r="0.42" fill="rgb(180,225,255)" opacity="0.51"/>
  <circle cx="1189.9" cy="384.3" r="1.09" fill="rgb(248,250,252)" opacity="0.32"/>
  <circle cx="1349.3" cy="385.4" r="0.22" fill="rgb(248,250,252)" opacity="0.52"/>
  <circle cx="1251.9" cy="15.0" r="0.44" fill="rgb(180,225,255)" opacity="0.62"/>
  <circle cx="1251.8" cy="5.2" r="1.26" fill="rgb(180,225,255)" opacity="0.74"/>
  <circle cx="730.5" cy="46.3" r="1.08" fill="rgb(180,225,255)" opacity="0.22"/>
  <circle cx="1478.2" cy="486.8" r="0.27" fill="rgb(248,250,252)" opacity="0.61"/>
  <circle cx="182.7" cy="252.0" r="0.61" fill="rgb(180,225,255)" opacity="0.28"/>
  <circle cx="68.2" cy="258.6" r="0.13" fill="rgb(248,250,252)" opacity="0.5"/>
  <circle cx="628.5" cy="436.8" r="0.97" fill="rgb(248,250,252)" opacity="0.49"/>
  <circle cx="894.0" cy="168.0" r="0.22" fill="rgb(248,250,252)" opacity="0.52"/>
  <circle cx="659.0" cy="346.0" r="0.23" fill="rgb(248,250,252)" opacity="0.43"/>
  <circle cx="1333.7" cy="434.6" r="1.05" fill="rgb(248,250,252)" opacity="0.65"/>
  <circle cx="1247.8" cy="33.5" r="0.37" fill="rgb(180,225,255)" opacity="0.46"/>
  <circle cx="434.7" cy="80.6" r="0.36" fill="rgb(180,225,255)" opacity="0.63"/>
  <circle cx="81.5" cy="204.5" r="0.15" fill="rgb(180,225,255)" opacity="0.57"/>
  <circle cx="1241.0" cy="455.2" r="0.2" fill="rgb(248,250,252)" opacity="0.55"/>
  <circle cx="668.6" cy="303.0" r="0.54" fill="rgb(180,225,255)" opacity="0.29"/>
  <circle cx="67.5" cy="370.1" r="0.24" fill="rgb(248,250,252)" opacity="0.22"/>
  <circle cx="920.4" cy="485.8" r="0.5" fill="rgb(248,250,252)" opacity="0.38"/>
  <circle cx="576.8" cy="323.2" r="0.3" fill="rgb(248,250,252)" opacity="0.52"/>
  <circle cx="419.0" cy="340.2" r="0.11" fill="rgb(248,250,252)" opacity="0.27"/>
  <circle cx="1383.6" cy="425.8" r="2.19" fill="rgb(248,250,252)" opacity="0.84"/>
  <circle cx="1486.5" cy="127.2" r="2.32" fill="rgb(248,250,252)" opacity="0.58"/>
  <circle cx="1149.6" cy="472.4" r="0.94" fill="rgb(248,250,252)" opacity="0.61"/>
  <circle cx="1218.3" cy="350.5" r="0.82" fill="rgb(248,250,252)" opacity="0.51"/>
  <circle cx="610.2" cy="473.2" r="0.19" fill="rgb(248,250,252)" opacity="0.6"/>
  <circle cx="475.4" cy="59.0" r="0.74" fill="rgb(248,250,252)" opacity="0.34"/>
  <circle cx="1089.4" cy="6.6" r="0.16" fill="rgb(248,250,252)" opacity="0.49"/>
  <circle cx="774.4" cy="434.5" r="0.43" fill="rgb(248,250,252)" opacity="0.53"/>
  <circle cx="1343.9" cy="93.0" r="0.39" fill="rgb(248,250,252)" opacity="0.42"/>
  <circle cx="562.7" cy="464.7" r="0.13" fill="rgb(248,250,252)" opacity="0.64"/>
  <circle cx="1309.9" cy="390.7" r="2.29" fill="rgb(180,225,255)" opacity="0.9"/>
  <circle cx="768.8" cy="179.5" r="0.54" fill="rgb(180,225,255)" opacity="0.22"/>
  <circle cx="1352.4" cy="159.5" r="0.25" fill="rgb(248,250,252)" opacity="0.37"/>
  <circle cx="303.9" cy="84.6" r="0.29" fill="rgb(248,250,252)" opacity="0.34"/>
  <circle cx="868.2" cy="188.1" r="0.34" fill="rgb(180,225,255)" opacity="0.27"/>
  <circle cx="840.3" cy="49.4" r="0.31" fill="rgb(248,250,252)" opacity="0.6"/>
  <circle cx="1431.9" cy="351.5" r="0.45" fill="rgb(180,225,255)" opacity="0.42"/>
  <circle cx="1157.8" cy="68.2" r="0.44" fill="rgb(248,250,252)" opacity="0.26"/>
  <circle cx="1461.1" cy="232.4" r="0.28" fill="rgb(248,250,252)" opacity="0.54"/>
  <circle cx="1310.9" cy="326.4" r="0.39" fill="rgb(248,250,252)" opacity="0.6"/>
  <circle cx="254.3" cy="192.4" r="0.19" fill="rgb(248,250,252)" opacity="0.22"/>
  <circle cx="1397.5" cy="428.5" r="0.61" fill="rgb(180,225,255)" opacity="0.48"/>
  <circle cx="390.5" cy="424.7" r="0.17" fill="rgb(248,250,252)" opacity="0.45"/>
  <circle cx="252.7" cy="467.6" r="0.33" fill="rgb(248,250,252)" opacity="0.61"/>
  <circle cx="215.5" cy="3.3" r="0.32" fill="rgb(248,250,252)" opacity="0.32"/>
  <circle cx="1078.8" cy="395.1" r="1.03" fill="rgb(248,250,252)" opacity="0.62"/>
  <circle cx="1207.6" cy="139.5" r="0.4" fill="rgb(248,250,252)" opacity="0.49"/>
  <circle cx="1322.1" cy="157.8" r="0.13" fill="rgb(180,225,255)" opacity="0.41"/>
  <circle cx="866.0" cy="214.1" r="0.11" fill="rgb(248,250,252)" opacity="0.48"/>
  <circle cx="1488.4" cy="259.7" r="0.48" fill="rgb(248,250,252)" opacity="0.25"/>
  <circle cx="183.6" cy="192.0" r="1.08" fill="rgb(248,250,252)" opacity="0.39"/>
  <circle cx="1211.8" cy="424.0" r="0.4" fill="rgb(248,250,252)" opacity="0.23"/>
  <circle cx="1008.5" cy="246.1" r="0.29" fill="rgb(180,225,255)" opacity="0.22"/>
  <circle cx="410.5" cy="269.4" r="2.02" fill="rgb(248,250,252)" opacity="0.6"/>
  <circle cx="1377.5" cy="479.2" r="0.43" fill="rgb(248,250,252)" opacity="0.35"/>
  <circle cx="290.5" cy="498.2" r="1.03" fill="rgb(248,250,252)" opacity="0.24"/>
  <circle cx="693.1" cy="95.7" r="0.79" fill="rgb(248,250,252)" opacity="0.55"/>
  <circle cx="318.8" cy="342.6" r="2.07" fill="rgb(248,250,252)" opacity="0.77"/>
  <circle cx="693.8" cy="290.4" r="0.58" fill="rgb(248,250,252)" opacity="0.35"/>
  <circle cx="272.9" cy="197.5" r="0.2" fill="rgb(248,250,252)" opacity="0.54"/>
  <circle cx="504.8" cy="91.0" r="0.21" fill="rgb(248,250,252)" opacity="0.33"/>
  <circle cx="719.8" cy="49.4" r="0.92" fill="rgb(248,250,252)" opacity="0.45"/>
  <circle cx="1112.0" cy="87.2" r="0.6" fill="rgb(248,250,252)" opacity="0.48"/>
  <circle cx="651.7" cy="293.1" r="0.26" fill="rgb(248,250,252)" opacity="0.25"/>
  <circle cx="343.8" cy="245.3" r="1.07" fill="rgb(248,250,252)" opacity="0.29"/>
  <circle cx="970.7" cy="304.7" r="0.2" fill="rgb(248,250,252)" opacity="0.24"/>
  <circle cx="855.1" cy="197.6" r="0.37" fill="rgb(180,225,255)" opacity="0.61"/>
  <circle cx="559.7" cy="208.8" r="0.38" fill="rgb(180,225,255)" opacity="0.49"/>
  <circle cx="1244.8" cy="118.3" r="0.4" fill="rgb(248,250,252)" opacity="0.47"/>
  <circle cx="816.6" cy="34.4" r="0.27" fill="rgb(248,250,252)" opacity="0.29"/>
  <circle cx="747.8" cy="265.6" r="0.79" fill="rgb(248,250,252)" opacity="0.31"/>
  <circle cx="1015.4" cy="127.2" r="0.49" fill="rgb(248,250,252)" opacity="0.39"/>
  <circle cx="1387.0" cy="212.9" r="0.64" fill="rgb(248,250,252)" opacity="0.26"/>
  <circle cx="814.2" cy="472.0" r="0.15" fill="rgb(248,250,252)" opacity="0.27"/>
  <circle cx="639.9" cy="208.9" r="0.4" fill="rgb(180,225,255)" opacity="0.48"/>
  <circle cx="735.7" cy="466.5" r="0.32" fill="rgb(248,250,252)" opacity="0.6"/>
  <circle cx="63.0" cy="398.0" r="0.94" fill="rgb(248,250,252)" opacity="0.44"/>
  <circle cx="1064.8" cy="296.2" r="0.42" fill="rgb(248,250,252)" opacity="0.51"/>
  <circle cx="641.8" cy="111.6" r="1.01" fill="rgb(248,250,252)" opacity="0.62"/>
  <circle cx="222.1" cy="103.2" r="0.3" fill="rgb(248,250,252)" opacity="0.62"/>
  <circle cx="289.8" cy="405.7" r="0.16" fill="rgb(248,250,252)" opacity="0.25"/>
  <circle cx="346.8" cy="74.7" r="0.17" fill="rgb(180,225,255)" opacity="0.23"/>
  <circle cx="726.7" cy="262.9" r="0.43" fill="rgb(248,250,252)" opacity="0.49"/>
  <circle cx="1292.5" cy="401.7" r="0.2" fill="rgb(248,250,252)" opacity="0.45"/>
  <circle cx="285.9" cy="434.3" r="0.75" fill="rgb(248,250,252)" opacity="0.36"/>
  <circle cx="132.3" cy="132.0" r="0.13" fill="rgb(248,250,252)" opacity="0.46"/>
  <circle cx="498.0" cy="99.9" r="0.59" fill="rgb(248,250,252)" opacity="0.55"/>
  <circle cx="733.2" cy="210.8" r="0.87" fill="rgb(248,250,252)" opacity="0.35"/>
  <circle cx="818.6" cy="306.2" r="0.42" fill="rgb(248,250,252)" opacity="0.34"/>
  <circle cx="820.5" cy="184.2" r="0.42" fill="rgb(248,250,252)" opacity="0.53"/>
  <circle cx="615.4" cy="467.2" r="0.29" fill="rgb(248,250,252)" opacity="0.31"/>
  <circle cx="1275.5" cy="343.4" r="0.3" fill="rgb(180,225,255)" opacity="0.49"/>
  <circle cx="165.4" cy="437.2" r="2.05" fill="rgb(248,250,252)" opacity="0.58"/>
  <circle cx="219.0" cy="470.3" r="0.27" fill="rgb(248,250,252)" opacity="0.29"/>
  <circle cx="1244.5" cy="294.9" r="0.21" fill="rgb(248,250,252)" opacity="0.44"/>
  <circle cx="320.2" cy="155.0" r="0.24" fill="rgb(180,225,255)" opacity="0.25"/>
  <circle cx="304.5" cy="495.6" r="0.23" fill="rgb(248,250,252)" opacity="0.24"/>
  <circle cx="1146.4" cy="119.2" r="0.16" fill="rgb(248,250,252)" opacity="0.46"/>
  <circle cx="1096.1" cy="200.1" r="0.44" fill="rgb(180,225,255)" opacity="0.25"/>
  <circle cx="914.5" cy="320.4" r="0.67" fill="rgb(248,250,252)" opacity="0.63"/>
  <circle cx="1258.1" cy="396.2" r="0.64" fill="rgb(180,225,255)" opacity="0.47"/>
  <circle cx="352.7" cy="153.4" r="0.85" fill="rgb(248,250,252)" opacity="0.6"/>
  <circle cx="1471.8" cy="319.4" r="0.45" fill="rgb(180,225,255)" opacity="0.39"/>
  <circle cx="74.8" cy="276.3" r="0.1" fill="rgb(248,250,252)" opacity="0.54"/>
  <circle cx="15.7" cy="7.0" r="0.19" fill="rgb(248,250,252)" opacity="0.64"/>
  <circle cx="880.8" cy="141.0" r="0.44" fill="rgb(248,250,252)" opacity="0.25"/>
  <circle cx="1325.4" cy="142.9" r="0.44" fill="rgb(248,250,252)" opacity="0.32"/>
  <circle cx="266.8" cy="367.0" r="0.17" fill="rgb(248,250,252)" opacity="0.52"/>
  <circle cx="1259.1" cy="390.4" r="0.82" fill="rgb(180,225,255)" opacity="0.41"/>
  <circle cx="670.8" cy="243.0" r="0.87" fill="rgb(248,250,252)" opacity="0.56"/>
  <circle cx="878.5" cy="309.8" r="0.63" fill="rgb(248,250,252)" opacity="0.65"/>
  <circle cx="831.3" cy="56.9" r="0.21" fill="rgb(248,250,252)" opacity="0.28"/>
  <circle cx="296.3" cy="307.6" r="0.42" fill="rgb(248,250,252)" opacity="0.54"/>
  <circle cx="1239.4" cy="358.2" r="0.23" fill="rgb(248,250,252)" opacity="0.25"/>
  <circle cx="1069.8" cy="418.3" r="0.28" fill="rgb(248,250,252)" opacity="0.35"/>
  <circle cx="270.5" cy="60.4" r="0.35" fill="rgb(248,250,252)" opacity="0.5"/>
  <circle cx="62.6" cy="234.9" r="0.9" fill="rgb(248,250,252)" opacity="0.4"/>
  <circle cx="1412.6" cy="425.8" r="0.54" fill="rgb(248,250,252)" opacity="0.3"/>
  <circle cx="1496.4" cy="81.5" r="0.96" fill="rgb(248,250,252)" opacity="0.54"/>
  <circle cx="1055.0" cy="251.8" r="0.17" fill="rgb(248,250,252)" opacity="0.42"/>
  <circle cx="1159.5" cy="475.6" r="0.79" fill="rgb(248,250,252)" opacity="0.57"/>
  <circle cx="261.0" cy="37.2" r="0.26" fill="rgb(248,250,252)" opacity="0.41"/>
  <circle cx="1294.2" cy="121.7" r="0.34" fill="rgb(248,250,252)" opacity="0.48"/>
  <circle cx="832.9" cy="149.3" r="0.42" fill="rgb(248,250,252)" opacity="0.34"/>
  <circle cx="474.6" cy="83.1" r="0.7" fill="rgb(248,250,252)" opacity="0.37"/>
  <circle cx="977.1" cy="334.9" r="0.33" fill="rgb(248,250,252)" opacity="0.21"/>
  <circle cx="1146.4" cy="407.4" r="0.14" fill="rgb(248,250,252)" opacity="0.24"/>
  <circle cx="1059.8" cy="494.9" r="0.37" fill="rgb(248,250,252)" opacity="0.35"/>
  <circle cx="660.3" cy="297.3" r="0.29" fill="rgb(248,250,252)" opacity="0.44"/>
  <circle cx="1326.3" cy="111.9" r="0.26" fill="rgb(248,250,252)" opacity="0.22"/>
  <circle cx="142.3" cy="55.4" r="0.23" fill="rgb(248,250,252)" opacity="0.43"/>
  <circle cx="252.1" cy="52.5" r="0.85" fill="rgb(248,250,252)" opacity="0.36"/>
  <circle cx="785.0" cy="380.0" r="0.44" fill="rgb(180,225,255)" opacity="0.57"/>
  <circle cx="571.6" cy="230.6" r="0.18" fill="rgb(248,250,252)" opacity="0.54"/>
  <circle cx="604.9" cy="144.6" r="0.22" fill="rgb(248,250,252)" opacity="0.56"/>
  <circle cx="645.2" cy="315.1" r="0.23" fill="rgb(248,250,252)" opacity="0.64"/>
  <circle cx="430.9" cy="233.6" r="0.4" fill="rgb(248,250,252)" opacity="0.24"/>
  <circle cx="1456.2" cy="316.3" r="0.14" fill="rgb(248,250,252)" opacity="0.45"/>
  <circle cx="1000.9" cy="94.1" r="0.42" fill="rgb(248,250,252)" opacity="0.26"/>
  <circle cx="216.1" cy="85.0" r="0.21" fill="rgb(248,250,252)" opacity="0.6"/>
  <circle cx="1107.2" cy="30.5" r="0.4" fill="rgb(248,250,252)" opacity="0.27"/>
  <circle cx="153.5" cy="125.7" r="0.18" fill="rgb(248,250,252)" opacity="0.3"/>
  <circle cx="1406.5" cy="204.0" r="0.38" fill="rgb(180,225,255)" opacity="0.29"/>
  <circle cx="6.4" cy="116.8" r="0.19" fill="rgb(248,250,252)" opacity="0.46"/>
  <circle cx="1437.9" cy="192.8" r="0.43" fill="rgb(248,250,252)" opacity="0.21"/>
  <circle cx="26.2" cy="64.8" r="0.33" fill="rgb(248,250,252)" opacity="0.57"/>
  <circle cx="1205.7" cy="329.0" r="0.42" fill="rgb(248,250,252)" opacity="0.57"/>
  <circle cx="485.3" cy="291.5" r="0.16" fill="rgb(180,225,255)" opacity="0.61"/>
  <circle cx="532.7" cy="490.4" r="0.35" fill="rgb(180,225,255)" opacity="0.58"/>
  <circle cx="640.5" cy="473.0" r="1.74" fill="rgb(180,225,255)" opacity="0.59"/>
  <circle cx="674.6" cy="279.5" r="0.38" fill="rgb(180,225,255)" opacity="0.25"/>
  <circle cx="998.4" cy="230.4" r="0.22" fill="rgb(248,250,252)" opacity="0.59"/>
  <circle cx="8.8" cy="427.4" r="0.7" fill="rgb(248,250,252)" opacity="0.4"/>
  <circle cx="1430.4" cy="113.0" r="0.41" fill="rgb(248,250,252)" opacity="0.38"/>
  <circle cx="1441.5" cy="248.6" r="0.73" fill="rgb(248,250,252)" opacity="0.29"/>
  <circle cx="544.2" cy="7.2" r="0.12" fill="rgb(180,225,255)" opacity="0.21"/>
  <circle cx="888.9" cy="397.9" r="0.46" fill="rgb(248,250,252)" opacity="0.32"/>
  <circle cx="877.8" cy="188.9" r="0.29" fill="rgb(248,250,252)" opacity="0.63"/>
  <circle cx="1088.5" cy="265.2" r="0.87" fill="rgb(180,225,255)" opacity="0.34"/>
  <circle cx="874.6" cy="96.0" r="0.67" fill="rgb(248,250,252)" opacity="0.55"/>
  <circle cx="1131.3" cy="6.8" r="0.69" fill="rgb(248,250,252)" opacity="0.35"/>
  <circle cx="1083.8" cy="117.0" r="0.82" fill="rgb(248,250,252)" opacity="0.3"/>
  <circle cx="988.2" cy="293.1" r="0.89" fill="rgb(248,250,252)" opacity="0.26"/>
  <circle cx="1327.7" cy="192.3" r="0.4" fill="rgb(248,250,252)" opacity="0.32"/>
  <circle cx="890.0" cy="376.8" r="0.28" fill="rgb(180,225,255)" opacity="0.42"/>
  <circle cx="300.0" cy="483.6" r="0.39" fill="rgb(248,250,252)" opacity="0.33"/>
  <circle cx="303.3" cy="463.9" r="1.1" fill="rgb(248,250,252)" opacity="0.33"/>
  <circle cx="1187.1" cy="12.3" r="0.22" fill="rgb(180,225,255)" opacity="0.38"/>
  <circle cx="810.8" cy="338.2" r="1.07" fill="rgb(248,250,252)" opacity="0.63"/>
  <circle cx="708.9" cy="245.5" r="0.51" fill="rgb(248,250,252)" opacity="0.22"/>
  <circle cx="966.1" cy="197.3" r="0.54" fill="rgb(248,250,252)" opacity="0.2"/>
  <circle cx="1122.5" cy="326.0" r="0.45" fill="rgb(248,250,252)" opacity="0.52"/>
  <circle cx="488.1" cy="144.8" r="1.16" fill="rgb(248,250,252)" opacity="0.75"/>
  <circle cx="356.5" cy="91.7" r="0.53" fill="rgb(180,225,255)" opacity="0.4"/>
  <circle cx="1084.8" cy="87.0" r="0.42" fill="rgb(248,250,252)" opacity="0.23"/>
  <circle cx="894.8" cy="255.6" r="0.11" fill="rgb(248,250,252)" opacity="0.48"/>
  <circle cx="1447.3" cy="303.4" r="0.38" fill="rgb(248,250,252)" opacity="0.6"/>
  <circle cx="294.6" cy="449.7" r="0.24" fill="rgb(248,250,252)" opacity="0.22"/>
  <circle cx="1078.5" cy="37.6" r="0.26" fill="rgb(248,250,252)" opacity="0.5"/>
  <circle cx="131.2" cy="439.0" r="0.29" fill="rgb(248,250,252)" opacity="0.4"/>
  <circle cx="316.7" cy="268.1" r="0.4" fill="rgb(248,250,252)" opacity="0.41"/>
  <circle cx="1154.1" cy="354.0" r="0.4" fill="rgb(180,225,255)" opacity="0.49"/>
  <circle cx="231.0" cy="123.6" r="0.27" fill="rgb(248,250,252)" opacity="0.58"/>
  <circle cx="1378.5" cy="449.0" r="0.15" fill="rgb(248,250,252)" opacity="0.24"/>
  <circle cx="1147.7" cy="203.0" r="0.38" fill="rgb(248,250,252)" opacity="0.37"/>
  <circle cx="33.6" cy="451.2" r="0.29" fill="rgb(248,250,252)" opacity="0.3"/>
  <circle cx="55.3" cy="304.5" r="0.3" fill="rgb(180,225,255)" opacity="0.45"/>
  <circle cx="1398.6" cy="177.7" r="0.69" fill="rgb(248,250,252)" opacity="0.45"/>
  <circle cx="848.7" cy="286.7" r="0.44" fill="rgb(248,250,252)" opacity="0.21"/>
  <circle cx="204.1" cy="291.4" r="0.32" fill="rgb(248,250,252)" opacity="0.33"/>
  <circle cx="951.4" cy="15.1" r="0.44" fill="rgb(180,225,255)" opacity="0.65"/>
  <circle cx="1271.6" cy="115.3" r="0.3" fill="rgb(248,250,252)" opacity="0.39"/>
  <circle cx="337.4" cy="277.9" r="0.16" fill="rgb(248,250,252)" opacity="0.52"/>
  <circle cx="857.3" cy="27.4" r="0.31" fill="rgb(248,250,252)" opacity="0.61"/>
  <circle cx="1133.6" cy="335.8" r="0.22" fill="rgb(248,250,252)" opacity="0.36"/>
  <circle cx="1417.3" cy="46.1" r="0.39" fill="rgb(248,250,252)" opacity="0.22"/>
  <circle cx="302.2" cy="389.0" r="0.25" fill="rgb(248,250,252)" opacity="0.52"/>
  <rect width="1500" height="500" fill="url(#neb_blue)"/>
  <rect width="1500" height="500" fill="url(#neb_mag)"/>
  <rect width="1500" height="500" fill="url(#neb_core)"/>
  <rect width="1500" height="500" fill="url(#vig)"/>

  <rect x="1495" y="0" width="5" height="500" fill="#FF6B35"/>
  <line x1="0" y1="428" x2="1500" y2="428" stroke="#1E3050" stroke-width="0.5"/>

  <text x="1428" y="158" class="eyebrow" text-anchor="end">E-LEARNING DEVELOPER  ·  INSTRUCTIONAL DESIGN  ·  MULTIMEDIA PRODUCTION</text>
  <text x="1428" y="264" class="name" text-anchor="end">ADAM LEIBLER</text>
  <rect x="968" y="278" width="460" height="2" fill="#FF6B35"/>
  <text x="1428" y="322" class="tagline" text-anchor="end">I Design Learning Experiences</text>
  <text x="1428" y="358" class="tagline-hi" text-anchor="end">That Actually Change Behavior.</text>
  <text x="1428" y="478" class="url" text-anchor="end">adamleibler.com</text>

  <rect x="72" y="168" width="260" height="58" rx="3" fill="none" stroke="#FF6B35" stroke-opacity="0.7" stroke-width="1"/>
  <text x="202" y="205" class="badge-text" text-anchor="middle">AI FLUENT</text>
  <line x1="72" y1="262" x2="332" y2="262" stroke="#1E3050" stroke-width="0.5"/>
  <text x="72" y="288" class="cred" text-anchor="start">U.S. ARMY VETERAN</text>
  <text x="72" y="310" class="cred" text-anchor="start">TWITCH PARTNER</text>
  <text x="72" y="332" class="cred" text-anchor="start">U OF L</text>
</svg>