<?xml version="1.0" encoding="UTF-8"?>
<svg id="Layer_1" xmlns="http://www.w3.org/2000/svg" version="1.1" xmlns:xlink="http://www.w3.org/1999/xlink" viewBox="0 0 1500 500">
  <!-- Generator: Adobe Illustrator 30.2.1, SVG Export Plug-In . SVG Version: 2.1.1 Build 1)  -->
  <defs>
    <style>
      .st0 {
        stroke: #ff6b35;
        stroke-opacity: .7;
      }

      .st0, .st1 {
        fill: none;
      }

      .st2, .st3, .st4, .st5, .st6, .st7, .st8, .st9, .st10, .st11, .st12, .st13, .st14, .st15, .st16, .st17, .st18, .st19, .st20, .st21, .st22, .st23, .st24, .st25, .st26, .st27, .st28, .st29, .st30, .st31, .st32, .st33, .st34, .st35, .st36, .st37, .st38, .st39, .st40, .st41, .st42, .st43, .st44, .st45, .st46, .st47, .st48, .st49, .st50, .st51, .st52, .st53, .st54, .st55, .st56, .st57, .st58, .st59, .st60, .st61, .st62, .st63, .st64, .st65, .st66, .st67, .st68, .st69, .st70, .st71, .st72, .st73, .st74, .st75, .st76, .st77, .st78, .st79, .st80, .st81, .st82, .st83, .st84, .st85, .st86, .st87, .st88, .st89, .st90, .st91, .st92, .st93, .st94, .st95, .st96, .st97, .st98, .st99, .st100, .st101, .st102, .st103 {
        isolation: isolate;
      }

      .st2, .st5, .st6, .st8, .st10, .st17, .st18, .st19, .st20, .st21, .st23, .st25, .st27, .st31, .st37, .st38, .st41, .st42, .st44, .st45, .st48, .st49, .st52, .st56, .st70, .st74, .st76, .st77, .st79, .st80, .st81, .st82, .st84, .st86, .st87, .st93, .st95, .st96, .st100, .st101, .st102, .st103 {
        fill: #b4e1ff;
      }

      .st2, .st89 {
        opacity: .4;
      }

      .st3, .st4, .st7, .st9, .st11, .st12, .st13, .st14, .st15, .st16, .st22, .st24, .st26, .st28, .st29, .st30, .st32, .st33, .st34, .st35, .st36, .st40, .st43, .st46, .st47, .st50, .st53, .st54, .st55, .st57, .st58, .st60, .st61, .st62, .st63, .st64, .st65, .st66, .st69, .st72, .st73, .st75, .st78, .st83, .st85, .st88, .st89, .st90, .st91, .st92, .st94, .st97, .st98, .st99 {
        fill: #f8fafc;
      }

      .st3, .st38 {
        opacity: .22;
      }

      .st4, .st103 {
        opacity: .27;
      }

      .st5 {
        opacity: .9;
      }

      .st6, .st14 {
        opacity: .29;
      }

      .st7, .st74 {
        opacity: .38;
      }

      .st8, .st55 {
        opacity: .28;
      }

      .st9, .st86 {
        opacity: .42;
      }

      .st10, .st36 {
        opacity: .51;
      }

      .st11, .st81 {
        opacity: .5;
      }

      .st12, .st18 {
        opacity: .23;
      }

      .st13, .st76 {
        opacity: .48;
      }

      .st15, .st17 {
        opacity: .3;
      }

      .st16, .st101 {
        opacity: .39;
      }

      .st1 {
        stroke: #1e3050;
        stroke-width: .5px;
      }

      .st104 {
        fill: #060d1a;
      }

      .st19, .st90 {
        opacity: .59;
      }

      .st20, .st85 {
        opacity: .25;
      }

      .st21, .st24 {
        opacity: .61;
      }

      .st22 {
        opacity: .54;
      }

      .st23, .st66 {
        opacity: .46;
      }

      .st25, .st33 {
        opacity: .31;
      }

      .st26 {
        opacity: .76;
      }

      .st27, .st46 {
        opacity: .44;
      }

      .st28 {
        opacity: .32;
      }

      .st29, .st80 {
        opacity: .49;
      }

      .st30 {
        opacity: .82;
      }

      .st31, .st88 {
        opacity: .21;
      }

      .st32 {
        opacity: .52;
      }

      .st105 {
        fill: url(#radial-gradient);
      }

      .st34 {
        opacity: .66;
      }

      .st35, .st48 {
        opacity: .33;
      }

      .st37, .st99 {
        opacity: .6;
      }

      .st106 {
        fill: url(#radial-gradient1);
      }

      .st39 {
        fill: #4a5568;
        font-size: 13px;
        letter-spacing: .15em;
      }

      .st39, .st68 {
        font-family: Lato-Regular, Lato;
      }

      .st40, .st49 {
        opacity: .43;
      }

      .st41, .st53 {
        opacity: .56;
      }

      .st42, .st62 {
        opacity: .62;
      }

      .st43, .st44 {
        opacity: .55;
      }

      .st45, .st64 {
        opacity: .34;
      }

      .st47, .st70 {
        opacity: .35;
      }

      .st50 {
        opacity: .71;
      }

      .st51 {
        font-family: Arial-BoldMT, Arial;
        font-size: 16px;
        letter-spacing: .25em;
      }

      .st51, .st59, .st67 {
        font-weight: 700;
      }

      .st51, .st107 {
        fill: #ff6b35;
      }

      .st52, .st63 {
        opacity: .36;
      }

      .st54 {
        opacity: .26;
      }

      .st56 {
        opacity: .7;
      }

      .st57 {
        font-family: Orbitron-Black, Orbitron;
        font-size: 80px;
        font-weight: 800;
        letter-spacing: .04em;
      }

      .st58, .st100 {
        opacity: .41;
      }

      .st59 {
        fill: #a0aec0;
        font-size: 12px;
        letter-spacing: .42em;
      }

      .st59, .st67 {
        font-family: Lato-Bold, Lato;
      }

      .st60, .st82 {
        opacity: .47;
      }

      .st61 {
        opacity: .24;
      }

      .st65, .st102 {
        opacity: .64;
      }

      .st67 {
        font-size: 15px;
        letter-spacing: .33em;
      }

      .st67, .st68 {
        fill: #00d2ff;
      }

      .st68, .st71 {
        font-size: 26px;
      }

      .st69 {
        opacity: .75;
      }

      .st71 {
        fill: #cbd5e0;
        font-family: Lato-Light, Lato;
        font-weight: 300;
      }

      .st72 {
        opacity: .84;
      }

      .st73 {
        opacity: .53;
      }

      .st75, .st95 {
        opacity: .63;
      }

      .st77, .st97 {
        opacity: .37;
      }

      .st78, .st87 {
        opacity: .65;
      }

      .st79, .st83 {
        opacity: .58;
      }

      .st108 {
        fill: url(#radial-gradient2);
      }

      .st84, .st92 {
        opacity: .45;
      }

      .st109 {
        fill: url(#radial-gradient3);
      }

      .st91, .st93 {
        opacity: .57;
      }

      .st94 {
        opacity: .2;
      }

      .st96 {
        opacity: .74;
      }

      .st98 {
        opacity: .77;
      }
    </style>
    <radialGradient id="radial-gradient" cx="-208.64" cy="790.28" fx="-208.64" fy="790.28" r=".38" gradientTransform="translate(313291 395211) scale(1500 -500)" gradientUnits="userSpaceOnUse">
      <stop offset="0" stop-color="#40e0ff" stop-opacity=".38"/>
      <stop offset=".4" stop-color="#09c" stop-opacity=".18"/>
      <stop offset="1" stop-color="#000" stop-opacity="0"/>
    </radialGradient>
    <radialGradient id="radial-gradient1" cx="-208.76" cy="790.1" fx="-208.76" fy="790.1" r=".34" gradientTransform="translate(313291 395211) scale(1500 -500)" gradientUnits="userSpaceOnUse">
      <stop offset="0" stop-color="#d4c" stop-opacity=".32"/>
      <stop offset=".4" stop-color="#816" stop-opacity=".14"/>
      <stop offset="1" stop-color="#000" stop-opacity="0"/>
    </radialGradient>
    <radialGradient id="radial-gradient2" cx="-208.7" cy="790.2" fx="-208.7" fy="790.2" r=".2" gradientTransform="translate(313291 395211) scale(1500 -500)" gradientUnits="userSpaceOnUse">
      <stop offset="0" stop-color="#fff" stop-opacity=".1"/>
      <stop offset="1" stop-color="#000" stop-opacity="0"/>
    </radialGradient>
    <radialGradient id="radial-gradient3" cx="-208.48" cy="789.92" fx="-208.48" fy="789.92" r=".65" gradientTransform="translate(313291 395211) scale(1500 -500)" gradientUnits="userSpaceOnUse">
      <stop offset=".35" stop-color="#040812" stop-opacity="0"/>
      <stop offset="1" stop-color="#040812" stop-opacity=".72"/>
    </radialGradient>
  </defs>
  <rect class="st104" width="1500" height="500"/>
  <circle class="st55" cx="288.5" cy="143.4" r=".21"/>
  <circle class="st64" cx="1103.5" cy="102.7" r="1.08"/>
  <circle class="st14" cx="1003.2" cy="167.8" r=".29"/>
  <circle class="st25" cx="426.3" cy="131.5" r=".36"/>
  <circle class="st102" cx="181.8" cy="330.4" r=".18"/>
  <circle class="st16" cx="1103.6" cy="481" r=".8"/>
  <circle class="st40" cx="1427.6" cy="153" r=".72"/>
  <circle class="st62" cx="518.9" cy="211.7" r=".35"/>
  <circle class="st90" cx="802.7" cy="123.4" r=".43"/>
  <circle class="st32" cx="618.7" cy="176.2" r="1.82"/>
  <circle class="st20" cx="1048.3" cy="324.6" r=".83"/>
  <circle class="st36" cx="1241" cy="97" r=".41"/>
  <circle class="st66" cx="1058.5" cy="458.6" r=".16"/>
  <circle class="st36" cx="447.6" cy="492.1" r=".31"/>
  <circle class="st64" cx="456" cy="479.4" r=".31"/>
  <circle class="st12" cx="244.5" cy="431.3" r=".11"/>
  <circle class="st54" cx="1437.1" cy="120.5" r=".41"/>
  <circle class="st99" cx="916.3" cy="288.6" r=".18"/>
  <circle class="st18" cx="778.6" cy="372.7" r=".24"/>
  <circle class="st22" cx="124.6" cy="26.6" r=".36"/>
  <circle class="st16" cx="619.4" cy="141.9" r=".21"/>
  <circle class="st11" cx="808.8" cy="140.7" r=".28"/>
  <circle class="st26" cx="597.6" cy="125.5" r="1.34"/>
  <circle class="st83" cx="441.3" cy="198.6" r=".11"/>
  <circle class="st72" cx="1216" cy="144.9" r="1.66"/>
  <circle class="st60" cx="1154.7" cy="201.2" r=".22"/>
  <circle class="st13" cx="726.8" cy="408.9" r=".74"/>
  <circle class="st85" cx="97.4" cy="106.5" r=".18"/>
  <circle class="st88" cx="402.5" cy="244.9" r=".25"/>
  <circle class="st17" cx="671.7" cy="412.5" r=".11"/>
  <circle class="st83" cx="1086.6" cy="195.2" r=".24"/>
  <circle class="st63" cx="807.1" cy="481" r=".67"/>
  <circle class="st40" cx="980.3" cy="414.9" r=".2"/>
  <circle class="st45" cx="180.9" cy="477.8" r=".82"/>
  <circle class="st86" cx="763.6" cy="90.5" r=".67"/>
  <circle class="st11" cx="463" cy="255.7" r="1.82"/>
  <circle class="st77" cx="163.6" cy="112.3" r=".34"/>
  <circle class="st90" cx="214.5" cy="105.3" r=".86"/>
  <circle class="st12" cx="1313.3" cy="101.3" r=".42"/>
  <circle class="st15" cx="1122.1" cy="392.7" r=".84"/>
  <circle class="st24" cx="1052.2" cy="12.3" r=".11"/>
  <circle class="st89" cx="1026.7" cy="454.8" r="1.05"/>
  <circle class="st55" cx="1048.7" cy="228.6" r=".11"/>
  <circle class="st54" cx="1260.3" cy="143.9" r=".42"/>
  <circle class="st63" cx="485.9" cy="11.6" r=".25"/>
  <circle class="st46" cx="802.5" cy="123.1" r=".14"/>
  <circle class="st44" cx="753.1" cy="267.2" r=".4"/>
  <circle class="st46" cx="568.2" cy="52.7" r=".11"/>
  <circle class="st36" cx="426.3" cy="476.5" r=".42"/>
  <circle class="st36" cx="646" cy="131" r="1.03"/>
  <circle class="st28" cx="1458.1" cy="66.9" r=".81"/>
  <circle class="st13" cx="804.6" cy="116.4" r=".26"/>
  <circle class="st56" cx="965.6" cy="190.3" r="1.25"/>
  <circle class="st64" cx="1010.5" cy="195.6" r=".44"/>
  <circle class="st64" cx="1086.7" cy="287.8" r=".4"/>
  <circle class="st88" cx="401.1" cy="395.2" r=".55"/>
  <circle class="st65" cx="164.6" cy="47.3" r=".42"/>
  <circle class="st64" cx="871.4" cy="478.1" r=".26"/>
  <circle class="st46" cx="413.1" cy="79.2" r=".17"/>
  <circle class="st36" cx="120.8" cy="144.2" r=".32"/>
  <circle class="st46" cx="1426.9" cy="438.7" r=".26"/>
  <circle class="st65" cx="733.4" cy="356.5" r=".12"/>
  <circle class="st35" cx="517" cy="385.1" r=".29"/>
  <circle class="st73" cx="489.5" cy="272" r="1.03"/>
  <circle class="st27" cx="570.3" cy="250.3" r=".2"/>
  <circle class="st21" cx="468.7" cy="426.4" r=".31"/>
  <circle class="st28" cx="1258" cy="237.8" r=".12"/>
  <circle class="st63" cx="1275.1" cy="429.3" r=".19"/>
  <circle class="st58" cx="282.2" cy="384.8" r=".34"/>
  <circle class="st46" cx="135.5" cy="149.8" r=".34"/>
  <circle class="st93" cx="1122.5" cy="440.4" r=".13"/>
  <circle class="st9" cx="820.6" cy="310.1" r=".27"/>
  <circle class="st10" cx="973.8" cy="327.1" r=".3"/>
  <circle class="st12" cx="211" cy="148.9" r=".4"/>
  <circle class="st97" cx="998.6" cy="121.6" r=".64"/>
  <circle class="st31" cx="1494.1" cy="415.6" r=".38"/>
  <circle class="st61" cx="83.9" cy="370.9" r=".12"/>
  <circle class="st64" cx="1093.1" cy="409.6" r=".99"/>
  <circle class="st93" cx="68.8" cy="187.6" r="1.46"/>
  <circle class="st84" cx="882.9" cy="353.3" r=".67"/>
  <circle class="st65" cx="991.6" cy="285.9" r=".15"/>
  <circle class="st35" cx="1151.8" cy="108.8" r=".27"/>
  <circle class="st76" cx="473.3" cy="89.9" r=".3"/>
  <circle class="st76" cx="1488.9" cy="202.5" r=".24"/>
  <circle class="st28" cx="1493" cy="257" r="1.02"/>
  <circle class="st4" cx="1390.6" cy="374.5" r=".13"/>
  <circle class="st14" cx="863.3" cy="146.5" r=".12"/>
  <circle class="st83" cx="1035.4" cy="105.8" r=".59"/>
  <circle class="st17" cx="811.4" cy="205" r=".25"/>
  <circle class="st58" cx="730.2" cy="402.8" r=".19"/>
  <circle class="st85" cx="805.9" cy="263.4" r=".17"/>
  <circle class="st84" cx="1095.1" cy="153.3" r=".43"/>
  <circle class="st75" cx="848.7" cy="328" r=".37"/>
  <circle class="st40" cx="890" cy="221.7" r=".95"/>
  <circle class="st75" cx="1106.3" cy="293.7" r=".16"/>
  <circle class="st4" cx="1015.7" cy="391.2" r=".24"/>
  <circle class="st65" cx="1042.6" cy="90.7" r=".27"/>
  <circle class="st13" cx="1280.7" cy="32.7" r="1.04"/>
  <circle class="st89" cx="1422.7" cy="247.3" r="1.08"/>
  <circle class="st83" cx="313.4" cy="186.3" r=".12"/>
  <circle class="st22" cx="940.7" cy="159.6" r=".2"/>
  <circle class="st66" cx="1497" cy="306.6" r=".1"/>
  <circle class="st52" cx="461.1" cy="63" r=".35"/>
  <circle class="st90" cx="1246.7" cy="466.9" r=".34"/>
  <circle class="st36" cx="1194.6" cy="254" r=".38"/>
  <circle class="st97" cx="1261.7" cy="354.5" r=".38"/>
  <circle class="st21" cx="335.4" cy="3.9" r=".35"/>
  <circle class="st41" cx="44.9" cy="309.4" r=".17"/>
  <circle class="st38" cx="902.6" cy="182.1" r=".25"/>
  <circle class="st88" cx="1182.9" cy="332.2" r=".2"/>
  <circle class="st83" cx="1027.1" cy="144" r=".19"/>
  <circle class="st24" cx="852.1" cy="199.7" r=".3"/>
  <circle class="st35" cx="201.3" cy="56.1" r=".18"/>
  <circle class="st37" cx="137.2" cy="67.8" r=".6"/>
  <circle class="st63" cx="1453.4" cy="144.7" r=".18"/>
  <circle class="st7" cx="290.9" cy="147.9" r=".39"/>
  <circle class="st70" cx="611.1" cy="73.9" r=".13"/>
  <circle class="st34" cx="1228.7" cy="165.7" r="1.99"/>
  <circle class="st45" cx="1492.3" cy="88.5" r=".1"/>
  <circle class="st50" cx="565" cy="265.3" r="2.04"/>
  <circle class="st4" cx="29.4" cy="224.2" r=".44"/>
  <circle class="st85" cx="963.4" cy="110.7" r=".29"/>
  <circle class="st73" cx="1036.5" cy="130.7" r=".82"/>
  <circle class="st16" cx="430.4" cy="12.5" r=".84"/>
  <circle class="st83" cx="513.8" cy="213.8" r=".4"/>
  <circle class="st64" cx="855.8" cy="5.6" r=".86"/>
  <circle class="st92" cx="179.4" cy="158.9" r=".35"/>
  <circle class="st92" cx="303.6" cy="111.7" r=".23"/>
  <circle class="st55" cx="1308.9" cy="365.2" r=".23"/>
  <circle class="st85" cx="243.1" cy="462" r=".15"/>
  <circle class="st81" cx="927.3" cy="341.2" r=".33"/>
  <circle class="st58" cx="1116.1" cy="404.3" r=".54"/>
  <circle class="st92" cx="913.6" cy="75.4" r=".4"/>
  <circle class="st97" cx="1133" cy="476.8" r=".92"/>
  <circle class="st12" cx="380.8" cy="394.4" r=".91"/>
  <circle class="st24" cx="1249.8" cy="205.8" r="1.07"/>
  <circle class="st45" cx="998.2" cy="186.5" r=".29"/>
  <circle class="st76" cx="891.5" cy="70.5" r=".21"/>
  <circle class="st75" cx="246.7" cy="350.1" r=".32"/>
  <circle class="st16" cx="10.1" cy="360.7" r=".7"/>
  <circle class="st31" cx="838.8" cy="272.8" r=".26"/>
  <circle class="st30" cx="179.6" cy="314.6" r="1.92"/>
  <circle class="st46" cx="716.1" cy="300.5" r=".44"/>
  <circle class="st60" cx="164.3" cy="41.9" r=".18"/>
  <circle class="st42" cx="776.8" cy="115.4" r=".31"/>
  <circle class="st24" cx="653.7" cy="209.7" r=".21"/>
  <circle class="st49" cx="819.6" cy="118.8" r=".29"/>
  <circle class="st73" cx="125.1" cy="126.6" r=".22"/>
  <circle class="st89" cx="244.7" cy="296.2" r=".44"/>
  <circle class="st16" cx="988.6" cy="157.4" r=".27"/>
  <circle class="st9" cx="1233.5" cy="232.3" r=".4"/>
  <circle class="st41" cx="446.9" cy="313.4" r=".58"/>
  <circle class="st24" cx="1086.5" cy="194.8" r=".7"/>
  <circle class="st81" cx="171.6" cy="113.1" r=".45"/>
  <circle class="st22" cx="824.8" cy="254.5" r=".63"/>
  <circle class="st91" cx="489.8" cy="118" r=".19"/>
  <circle class="st22" cx="834.4" cy="144.2" r=".86"/>
  <circle class="st2" cx="818" cy="354.1" r=".43"/>
  <circle class="st85" cx="85.6" cy="103" r=".22"/>
  <circle class="st29" cx="898.1" cy="104" r=".27"/>
  <circle class="st13" cx="823.6" cy="35.3" r=".12"/>
  <circle class="st88" cx="494.9" cy="93.6" r=".22"/>
  <circle class="st54" cx="1395.4" cy="55.7" r=".34"/>
  <circle class="st65" cx="1063.2" cy="250.7" r=".22"/>
  <circle class="st43" cx="1390.8" cy="212.2" r=".5"/>
  <circle class="st18" cx="571.6" cy="449.4" r=".28"/>
  <circle class="st33" cx="1449" cy="441.1" r="1.08"/>
  <circle class="st28" cx="247.2" cy="312.8" r=".37"/>
  <circle class="st48" cx="352.6" cy="393.5" r=".16"/>
  <circle class="st86" cx="836.5" cy="101.7" r=".18"/>
  <circle class="st64" cx="683.4" cy="263.9" r=".41"/>
  <circle class="st36" cx="1052.5" cy="295.6" r=".89"/>
  <circle class="st40" cx="523.4" cy="285.6" r=".17"/>
  <circle class="st76" cx="1088.7" cy="11.8" r=".24"/>
  <circle class="st3" cx="834.3" cy="414" r=".33"/>
  <circle class="st22" cx="1324.8" cy="412" r="1.01"/>
  <circle class="st63" cx="1246.2" cy="435.5" r=".22"/>
  <circle class="st87" cx="333.6" cy="343.4" r=".17"/>
  <circle class="st7" cx="180.3" cy="323.8" r=".35"/>
  <circle class="st40" cx="313.2" cy="28.7" r=".29"/>
  <circle class="st83" cx="1370.9" cy="263.3" r=".35"/>
  <circle class="st10" cx="1334.9" cy="335.6" r=".42"/>
  <circle class="st28" cx="1189.9" cy="384.3" r="1.09"/>
  <circle class="st32" cx="1349.3" cy="385.4" r=".22"/>
  <circle class="st42" cx="1251.9" cy="15" r=".44"/>
  <circle class="st96" cx="1251.8" cy="5.2" r="1.26"/>
  <circle class="st38" cx="730.5" cy="46.3" r="1.08"/>
  <circle class="st24" cx="1478.2" cy="486.8" r=".27"/>
  <circle class="st8" cx="182.7" cy="252" r=".61"/>
  <circle class="st11" cx="68.2" cy="258.6" r=".13"/>
  <circle class="st29" cx="628.5" cy="436.8" r=".97"/>
  <circle class="st32" cx="894" cy="168" r=".22"/>
  <circle class="st40" cx="659" cy="346" r=".23"/>
  <circle class="st78" cx="1333.7" cy="434.6" r="1.05"/>
  <circle class="st23" cx="1247.8" cy="33.5" r=".37"/>
  <circle class="st95" cx="434.7" cy="80.6" r=".36"/>
  <circle class="st93" cx="81.5" cy="204.5" r=".15"/>
  <circle class="st43" cx="1241" cy="455.2" r=".2"/>
  <circle class="st6" cx="668.6" cy="303" r=".54"/>
  <circle class="st3" cx="67.5" cy="370.1" r=".24"/>
  <circle class="st7" cx="920.4" cy="485.8" r=".5"/>
  <circle class="st32" cx="576.8" cy="323.2" r=".3"/>
  <circle class="st4" cx="419" cy="340.2" r=".11"/>
  <circle class="st72" cx="1383.6" cy="425.8" r="2.19"/>
  <circle class="st83" cx="1486.5" cy="127.2" r="2.32"/>
  <circle class="st24" cx="1149.6" cy="472.4" r=".94"/>
  <circle class="st36" cx="1218.3" cy="350.5" r=".82"/>
  <circle class="st99" cx="610.2" cy="473.2" r=".19"/>
  <circle class="st64" cx="475.4" cy="59" r=".74"/>
  <circle class="st29" cx="1089.4" cy="6.6" r=".16"/>
  <circle class="st73" cx="774.4" cy="434.5" r=".43"/>
  <circle class="st9" cx="1343.9" cy="93" r=".39"/>
  <circle class="st65" cx="562.7" cy="464.7" r=".13"/>
  <circle class="st5" cx="1309.9" cy="390.7" r="2.29"/>
  <circle class="st38" cx="768.8" cy="179.5" r=".54"/>
  <circle class="st97" cx="1352.4" cy="159.5" r=".25"/>
  <circle class="st64" cx="303.9" cy="84.6" r=".29"/>
  <circle class="st103" cx="868.2" cy="188.1" r=".34"/>
  <circle class="st99" cx="840.3" cy="49.4" r=".31"/>
  <circle class="st86" cx="1431.9" cy="351.5" r=".45"/>
  <circle class="st54" cx="1157.8" cy="68.2" r=".44"/>
  <circle class="st22" cx="1461.1" cy="232.4" r=".28"/>
  <circle class="st99" cx="1310.9" cy="326.4" r=".39"/>
  <circle class="st3" cx="254.3" cy="192.4" r=".19"/>
  <circle class="st76" cx="1397.5" cy="428.5" r=".61"/>
  <circle class="st92" cx="390.5" cy="424.7" r=".17"/>
  <circle class="st24" cx="252.7" cy="467.6" r=".33"/>
  <circle class="st28" cx="215.5" cy="3.3" r=".32"/>
  <circle class="st62" cx="1078.8" cy="395.1" r="1.03"/>
  <circle class="st29" cx="1207.6" cy="139.5" r=".4"/>
  <circle class="st100" cx="1322.1" cy="157.8" r=".13"/>
  <circle class="st13" cx="866" cy="214.1" r=".11"/>
  <circle class="st85" cx="1488.4" cy="259.7" r=".48"/>
  <circle class="st16" cx="183.6" cy="192" r="1.08"/>
  <circle class="st12" cx="1211.8" cy="424" r=".4"/>
  <circle class="st38" cx="1008.5" cy="246.1" r=".29"/>
  <circle class="st99" cx="410.5" cy="269.4" r="2.02"/>
  <circle class="st47" cx="1377.5" cy="479.2" r=".43"/>
  <circle class="st61" cx="290.5" cy="498.2" r="1.03"/>
  <circle class="st43" cx="693.1" cy="95.7" r=".79"/>
  <circle class="st98" cx="318.8" cy="342.6" r="2.07"/>
  <circle class="st47" cx="693.8" cy="290.4" r=".58"/>
  <circle class="st22" cx="272.9" cy="197.5" r=".2"/>
  <circle class="st35" cx="504.8" cy="91" r=".21"/>
  <circle class="st92" cx="719.8" cy="49.4" r=".92"/>
  <circle class="st13" cx="1112" cy="87.2" r=".6"/>
  <circle class="st85" cx="651.7" cy="293.1" r=".26"/>
  <circle class="st14" cx="343.8" cy="245.3" r="1.07"/>
  <circle class="st61" cx="970.7" cy="304.7" r=".2"/>
  <circle class="st21" cx="855.1" cy="197.6" r=".37"/>
  <circle class="st80" cx="559.7" cy="208.8" r=".38"/>
  <circle class="st60" cx="1244.8" cy="118.3" r=".4"/>
  <circle class="st14" cx="816.6" cy="34.4" r=".27"/>
  <circle class="st33" cx="747.8" cy="265.6" r=".79"/>
  <circle class="st16" cx="1015.4" cy="127.2" r=".49"/>
  <circle class="st54" cx="1387" cy="212.9" r=".64"/>
  <circle class="st4" cx="814.2" cy="472" r=".15"/>
  <circle class="st76" cx="639.9" cy="208.9" r=".4"/>
  <circle class="st99" cx="735.7" cy="466.5" r=".32"/>
  <circle class="st46" cx="63" cy="398" r=".94"/>
  <circle class="st36" cx="1064.8" cy="296.2" r=".42"/>
  <circle class="st62" cx="641.8" cy="111.6" r="1.01"/>
  <circle class="st62" cx="222.1" cy="103.2" r=".3"/>
  <circle class="st85" cx="289.8" cy="405.7" r=".16"/>
  <circle class="st18" cx="346.8" cy="74.7" r=".17"/>
  <circle class="st29" cx="726.7" cy="262.9" r=".43"/>
  <circle class="st92" cx="1292.5" cy="401.7" r=".2"/>
  <circle class="st63" cx="285.9" cy="434.3" r=".75"/>
  <circle class="st66" cx="132.3" cy="132" r=".13"/>
  <circle class="st43" cx="498" cy="99.9" r=".59"/>
  <circle class="st47" cx="733.2" cy="210.8" r=".87"/>
  <circle class="st64" cx="818.6" cy="306.2" r=".42"/>
  <circle class="st73" cx="820.5" cy="184.2" r=".42"/>
  <circle class="st33" cx="615.4" cy="467.2" r=".29"/>
  <circle class="st80" cx="1275.5" cy="343.4" r=".3"/>
  <circle class="st83" cx="165.4" cy="437.2" r="2.05"/>
  <circle class="st14" cx="219" cy="470.3" r=".27"/>
  <circle class="st46" cx="1244.5" cy="294.9" r=".21"/>
  <circle class="st20" cx="320.2" cy="155" r=".24"/>
  <circle class="st61" cx="304.5" cy="495.6" r=".23"/>
  <circle class="st66" cx="1146.4" cy="119.2" r=".16"/>
  <circle class="st20" cx="1096.1" cy="200.1" r=".44"/>
  <circle class="st75" cx="914.5" cy="320.4" r=".67"/>
  <circle class="st82" cx="1258.1" cy="396.2" r=".64"/>
  <circle class="st99" cx="352.7" cy="153.4" r=".85"/>
  <circle class="st101" cx="1471.8" cy="319.4" r=".45"/>
  <circle class="st22" cx="74.8" cy="276.3" r=".1"/>
  <circle class="st65" cx="15.7" cy="7" r=".19"/>
  <circle class="st85" cx="880.8" cy="141" r=".44"/>
  <circle class="st28" cx="1325.4" cy="142.9" r=".44"/>
  <circle class="st32" cx="266.8" cy="367" r=".17"/>
  <circle class="st100" cx="1259.1" cy="390.4" r=".82"/>
  <circle class="st53" cx="670.8" cy="243" r=".87"/>
  <circle class="st78" cx="878.5" cy="309.8" r=".63"/>
  <circle class="st55" cx="831.3" cy="56.9" r=".21"/>
  <circle class="st22" cx="296.3" cy="307.6" r=".42"/>
  <circle class="st85" cx="1239.4" cy="358.2" r=".23"/>
  <circle class="st47" cx="1069.8" cy="418.3" r=".28"/>
  <circle class="st11" cx="270.5" cy="60.4" r=".35"/>
  <circle class="st89" cx="62.6" cy="234.9" r=".9"/>
  <circle class="st15" cx="1412.6" cy="425.8" r=".54"/>
  <circle class="st22" cx="1496.4" cy="81.5" r=".96"/>
  <circle class="st9" cx="1055" cy="251.8" r=".17"/>
  <circle class="st91" cx="1159.5" cy="475.6" r=".79"/>
  <circle class="st58" cx="261" cy="37.2" r=".26"/>
  <circle class="st13" cx="1294.2" cy="121.7" r=".34"/>
  <circle class="st64" cx="832.9" cy="149.3" r=".42"/>
  <circle class="st97" cx="474.6" cy="83.1" r=".7"/>
  <circle class="st88" cx="977.1" cy="334.9" r=".33"/>
  <circle class="st61" cx="1146.4" cy="407.4" r=".14"/>
  <circle class="st47" cx="1059.8" cy="494.9" r=".37"/>
  <circle class="st46" cx="660.3" cy="297.3" r=".29"/>
  <circle class="st3" cx="1326.3" cy="111.9" r=".26"/>
  <circle class="st40" cx="142.3" cy="55.4" r=".23"/>
  <circle class="st63" cx="252.1" cy="52.5" r=".85"/>
  <circle class="st93" cx="785" cy="380" r=".44"/>
  <circle class="st22" cx="571.6" cy="230.6" r=".18"/>
  <circle class="st53" cx="604.9" cy="144.6" r=".22"/>
  <circle class="st65" cx="645.2" cy="315.1" r=".23"/>
  <circle class="st61" cx="430.9" cy="233.6" r=".4"/>
  <circle class="st92" cx="1456.2" cy="316.3" r=".14"/>
  <circle class="st54" cx="1000.9" cy="94.1" r=".42"/>
  <circle class="st99" cx="216.1" cy="85" r=".21"/>
  <circle class="st4" cx="1107.2" cy="30.5" r=".4"/>
  <circle class="st15" cx="153.5" cy="125.7" r=".18"/>
  <circle class="st6" cx="1406.5" cy="204" r=".38"/>
  <circle class="st66" cx="6.4" cy="116.8" r=".19"/>
  <circle class="st88" cx="1437.9" cy="192.8" r=".43"/>
  <circle class="st91" cx="26.2" cy="64.8" r=".33"/>
  <circle class="st91" cx="1205.7" cy="329" r=".42"/>
  <circle class="st21" cx="485.3" cy="291.5" r=".16"/>
  <circle class="st79" cx="532.7" cy="490.4" r=".35"/>
  <circle class="st19" cx="640.5" cy="473" r="1.74"/>
  <circle class="st20" cx="674.6" cy="279.5" r=".38"/>
  <circle class="st90" cx="998.4" cy="230.4" r=".22"/>
  <circle class="st89" cx="8.8" cy="427.4" r=".7"/>
  <circle class="st7" cx="1430.4" cy="113" r=".41"/>
  <circle class="st14" cx="1441.5" cy="248.6" r=".73"/>
  <circle class="st31" cx="544.2" cy="7.2" r=".12"/>
  <circle class="st28" cx="888.9" cy="397.9" r=".46"/>
  <circle class="st75" cx="877.8" cy="188.9" r=".29"/>
  <circle class="st45" cx="1088.5" cy="265.2" r=".87"/>
  <circle class="st43" cx="874.6" cy="96" r=".67"/>
  <circle class="st47" cx="1131.3" cy="6.8" r=".69"/>
  <circle class="st15" cx="1083.8" cy="117" r=".82"/>
  <circle class="st54" cx="988.2" cy="293.1" r=".89"/>
  <circle class="st28" cx="1327.7" cy="192.3" r=".4"/>
  <circle class="st86" cx="890" cy="376.8" r=".28"/>
  <circle class="st35" cx="300" cy="483.6" r=".39"/>
  <circle class="st35" cx="303.3" cy="463.9" r="1.1"/>
  <circle class="st74" cx="1187.1" cy="12.3" r=".22"/>
  <circle class="st75" cx="810.8" cy="338.2" r="1.07"/>
  <circle class="st3" cx="708.9" cy="245.5" r=".51"/>
  <circle class="st94" cx="966.1" cy="197.3" r=".54"/>
  <circle class="st32" cx="1122.5" cy="326" r=".45"/>
  <circle class="st69" cx="488.1" cy="144.8" r="1.16"/>
  <circle class="st2" cx="356.5" cy="91.7" r=".53"/>
  <circle class="st12" cx="1084.8" cy="87" r=".42"/>
  <circle class="st13" cx="894.8" cy="255.6" r=".11"/>
  <circle class="st99" cx="1447.3" cy="303.4" r=".38"/>
  <circle class="st3" cx="294.6" cy="449.7" r=".24"/>
  <circle class="st11" cx="1078.5" cy="37.6" r=".26"/>
  <circle class="st89" cx="131.2" cy="439" r=".29"/>
  <circle class="st58" cx="316.7" cy="268.1" r=".4"/>
  <circle class="st80" cx="1154.1" cy="354" r=".4"/>
  <circle class="st83" cx="231" cy="123.6" r=".27"/>
  <circle class="st61" cx="1378.5" cy="449" r=".15"/>
  <circle class="st97" cx="1147.7" cy="203" r=".38"/>
  <circle class="st15" cx="33.6" cy="451.2" r=".29"/>
  <circle class="st84" cx="55.3" cy="304.5" r=".3"/>
  <circle class="st92" cx="1398.6" cy="177.7" r=".69"/>
  <circle class="st88" cx="848.7" cy="286.7" r=".44"/>
  <circle class="st35" cx="204.1" cy="291.4" r=".32"/>
  <circle class="st87" cx="951.4" cy="15.1" r=".44"/>
  <circle class="st16" cx="1271.6" cy="115.3" r=".3"/>
  <circle class="st32" cx="337.4" cy="277.9" r=".16"/>
  <circle class="st24" cx="857.3" cy="27.4" r=".31"/>
  <circle class="st63" cx="1133.6" cy="335.8" r=".22"/>
  <circle class="st3" cx="1417.3" cy="46.1" r=".39"/>
  <circle class="st32" cx="302.2" cy="389" r=".25"/>
  <rect class="st105" width="1500" height="500"/>
  <rect class="st106" width="1500" height="500"/>
  <rect class="st108" width="1500" height="500"/>
  <rect class="st109" width="1500" height="500"/>
  <rect class="st107" x="1495" width="5" height="500"/>
  <line class="st1" y1="428" x2="1500" y2="428"/>
  <text class="st67" transform="translate(521.76 158)"><tspan x="0" y="0">E-LEARNING DEVELOPER · INSTRUCTIONAL DESIGN · MULTIMEDIA PRODUCTION</tspan></text>
  <text class="st57" transform="translate(694.17 264)"><tspan x="0" y="0">ADAM LEIBLER</tspan></text>
  <rect class="st107" x="968" y="278" width="460" height="2"/>
  <text class="st71" transform="translate(1096.37 322)"><tspan x="0" y="0">I Design Learning Experiences</tspan></text>
  <text class="st68" transform="translate(1073.31 358)"><tspan x="0" y="0">That Actually Change Behavior.</tspan></text>
  <text class="st39" transform="translate(1304.9 478)"><tspan x="0" y="0">adamleibler.com</tspan></text>
  <rect class="st0" x="72" y="168" width="260" height="58" rx="3" ry="3"/>
  <text class="st51" transform="translate(142.23 205)"><tspan x="0" y="0">AI FLUENT</tspan></text>
  <line class="st1" x1="72" y1="262" x2="332" y2="262"/>
  <text class="st59" transform="translate(72 288)"><tspan x="0" y="0">U.S. ARMY VETERAN</tspan></text>
  <text class="st59" transform="translate(72 310)"><tspan x="0" y="0">TWITCH PARTNER</tspan></text>
  <text class="st59" transform="translate(72 332)"><tspan x="0" y="0">U OF L</tspan></text>
</svg>