<?xml version="1.0" encoding="UTF-8"?>
<svg id="Layer_1" xmlns="http://www.w3.org/2000/svg" version="1.1" xmlns:xlink="http://www.w3.org/1999/xlink" viewBox="0 0 1584 396">
  <!-- Generator: Adobe Illustrator 30.2.1, SVG Export Plug-In . SVG Version: 2.1.1 Build 1)  -->
  <defs>
    <style>
      .st0 {
        stroke: #ff6b35;
        stroke-opacity: .7;
      }

      .st0, .st1 {
        fill: none;
      }

      .st2, .st3, .st4, .st5, .st6, .st7, .st8, .st9, .st10, .st11, .st12, .st13, .st14, .st15, .st16, .st17, .st18, .st19, .st20, .st21, .st22, .st23, .st24, .st25, .st26, .st27, .st28, .st29, .st30, .st31, .st32, .st33, .st34, .st35, .st36, .st37, .st38, .st39, .st40, .st41, .st42, .st43, .st44, .st45, .st46, .st47, .st48, .st49, .st50, .st51, .st52, .st53, .st54, .st55, .st56, .st57, .st58, .st59, .st60, .st61, .st62, .st63, .st64, .st65, .st66, .st67, .st68, .st69, .st70, .st71, .st72, .st73, .st74, .st75, .st76, .st77, .st78, .st79, .st80, .st81, .st82, .st83, .st84, .st85, .st86, .st87, .st88, .st89, .st90, .st91, .st92, .st93, .st94, .st95 {
        isolation: isolate;
      }

      .st2, .st4, .st6, .st7, .st9, .st10, .st11, .st12, .st13, .st14, .st20, .st21, .st22, .st23, .st25, .st26, .st27, .st28, .st29, .st30, .st31, .st32, .st33, .st35, .st38, .st40, .st41, .st44, .st48, .st49, .st50, .st53, .st56, .st57, .st58, .st59, .st60, .st61, .st62, .st66, .st67, .st70, .st74, .st75, .st76, .st77, .st78, .st79, .st80, .st81, .st83, .st85, .st86, .st88, .st90, .st91 {
        fill: #f8fafc;
      }

      .st2, .st34 {
        opacity: .22;
      }

      .st3, .st5, .st8, .st15, .st16, .st17, .st18, .st19, .st24, .st34, .st36, .st37, .st39, .st42, .st43, .st45, .st46, .st47, .st52, .st54, .st63, .st64, .st68, .st69, .st71, .st72, .st73, .st84, .st87, .st92, .st94, .st95 {
        fill: #b4e1ff;
      }

      .st3, .st86 {
        opacity: .2;
      }

      .st4, .st95 {
        opacity: .27;
      }

      .st5, .st12 {
        opacity: .29;
      }

      .st6 {
        opacity: .38;
      }

      .st7 {
        opacity: .42;
      }

      .st8, .st32 {
        opacity: .51;
      }

      .st9 {
        opacity: .5;
      }

      .st10, .st17 {
        opacity: .23;
      }

      .st11, .st68 {
        opacity: .48;
      }

      .st13, .st15 {
        opacity: .3;
      }

      .st14 {
        opacity: .39;
      }

      .st1 {
        stroke: #1e3050;
        stroke-width: .5px;
      }

      .st16, .st28 {
        opacity: .52;
      }

      .st96 {
        fill: #060d1a;
      }

      .st18, .st78 {
        opacity: .59;
      }

      .st19, .st25 {
        opacity: .32;
      }

      .st20 {
        opacity: .54;
      }

      .st21 {
        opacity: .87;
      }

      .st22 {
        opacity: .61;
      }

      .st23 {
        opacity: .67;
      }

      .st24, .st40 {
        opacity: .44;
      }

      .st26, .st72 {
        opacity: .49;
      }

      .st27 {
        opacity: .85;
      }

      .st29 {
        opacity: .31;
      }

      .st97 {
        fill: url(#radial-gradient);
      }

      .st30 {
        opacity: .66;
      }

      .st31, .st42 {
        opacity: .33;
      }

      .st33 {
        opacity: .72;
      }

      .st98 {
        fill: url(#radial-gradient1);
      }

      .st35, .st45 {
        opacity: .43;
      }

      .st36, .st48 {
        opacity: .56;
      }

      .st37, .st58 {
        opacity: .62;
      }

      .st38 {
        opacity: .55;
      }

      .st39, .st60 {
        opacity: .34;
      }

      .st41, .st63 {
        opacity: .35;
      }

      .st43, .st49 {
        opacity: .26;
      }

      .st44 {
        opacity: .7;
      }

      .st46, .st57 {
        opacity: .24;
      }

      .st47, .st59 {
        opacity: .36;
      }

      .st50 {
        opacity: .28;
      }

      .st51 {
        letter-spacing: .36em;
      }

      .st51, .st55 {
        font-family: Lato-Bold, Lato;
      }

      .st51, .st55, .st93 {
        font-weight: 700;
      }

      .st51, .st89 {
        fill: #00d2ff;
      }

      .st51, .st93 {
        font-size: 14px;
      }

      .st52, .st66 {
        opacity: .53;
      }

      .st53, .st92 {
        opacity: .41;
      }

      .st54 {
        opacity: .82;
      }

      .st55 {
        fill: #a0aec0;
        letter-spacing: .42em;
      }

      .st55, .st65 {
        font-size: 12px;
      }

      .st56, .st73 {
        opacity: .47;
      }

      .st61, .st94 {
        opacity: .64;
      }

      .st62 {
        opacity: .46;
      }

      .st64, .st90 {
        opacity: .77;
      }

      .st65 {
        fill: #4a5568;
        letter-spacing: .17em;
      }

      .st65, .st89 {
        font-family: Lato-Regular, Lato;
      }

      .st67, .st87 {
        opacity: .63;
      }

      .st69, .st88 {
        opacity: .37;
      }

      .st70 {
        opacity: .65;
      }

      .st71, .st74 {
        opacity: .58;
      }

      .st99 {
        fill: url(#radial-gradient2);
      }

      .st75 {
        opacity: .25;
      }

      .st76 {
        opacity: .21;
      }

      .st77 {
        opacity: .4;
      }

      .st100 {
        fill: url(#radial-gradient3);
      }

      .st79 {
        opacity: .89;
      }

      .st80, .st84 {
        opacity: .57;
      }

      .st81 {
        font-family: Orbitron-Black, Orbitron;
        font-size: 72px;
        font-weight: 800;
        letter-spacing: .04em;
      }

      .st82 {
        fill: #cbd5e0;
        font-family: Lato-Light, Lato;
        font-weight: 300;
      }

      .st82, .st89 {
        font-size: 24px;
      }

      .st83 {
        opacity: .45;
      }

      .st85 {
        opacity: .79;
      }

      .st101, .st93 {
        fill: #ff6b35;
      }

      .st91 {
        opacity: .6;
      }

      .st93 {
        font-family: Arial-BoldMT, Arial;
        letter-spacing: .29em;
      }
    </style>
    <radialGradient id="radial-gradient" cx="-166.67" cy="738.02" fx="-166.67" fy="738.02" r=".38" gradientTransform="translate(264361 292303) scale(1584 -396)" gradientUnits="userSpaceOnUse">
      <stop offset="0" stop-color="#40e0ff" stop-opacity=".38"/>
      <stop offset=".4" stop-color="#09c" stop-opacity=".18"/>
      <stop offset="1" stop-color="#000" stop-opacity="0"/>
    </radialGradient>
    <radialGradient id="radial-gradient1" cx="-166.8" cy="737.8" fx="-166.8" fy="737.8" r=".34" gradientTransform="translate(264361 292303) scale(1584 -396)" gradientUnits="userSpaceOnUse">
      <stop offset="0" stop-color="#d4c" stop-opacity=".32"/>
      <stop offset=".4" stop-color="#816" stop-opacity=".14"/>
      <stop offset="1" stop-color="#000" stop-opacity="0"/>
    </radialGradient>
    <radialGradient id="radial-gradient2" cx="-166.73" cy="737.94" fx="-166.73" fy="737.94" r=".2" gradientTransform="translate(264361 292303) scale(1584 -396)" gradientUnits="userSpaceOnUse">
      <stop offset="0" stop-color="#fff" stop-opacity=".1"/>
      <stop offset="1" stop-color="#000" stop-opacity="0"/>
    </radialGradient>
    <radialGradient id="radial-gradient3" cx="-166.51" cy="737.64" fx="-166.51" fy="737.64" r=".65" gradientTransform="translate(264361 292303) scale(1584 -396)" gradientUnits="userSpaceOnUse">
      <stop offset=".35" stop-color="#040812" stop-opacity="0"/>
      <stop offset="1" stop-color="#040812" stop-opacity=".74"/>
    </radialGradient>
  </defs>
  <rect class="st96" width="1584" height="396"/>
  <circle class="st9" cx="1084.4" cy="385.6" r=".42"/>
  <circle class="st62" cx="10.4" cy="5.2" r=".33"/>
  <circle class="st77" cx="964.4" cy="145.6" r=".3"/>
  <circle class="st83" cx="1473" cy="79.7" r=".42"/>
  <circle class="st2" cx="919.8" cy="97.4" r=".31"/>
  <circle class="st62" cx="1428.9" cy="134.6" r=".41"/>
  <circle class="st32" cx="1460.2" cy="384" r=".37"/>
  <circle class="st60" cx="952.6" cy="370.3" r=".13"/>
  <circle class="st74" cx="818.2" cy="63.1" r=".22"/>
  <circle class="st61" cx="1067.6" cy="355.9" r=".89"/>
  <circle class="st49" cx="1100.9" cy="32.9" r=".16"/>
  <circle class="st50" cx="380.3" cy="230.8" r=".12"/>
  <circle class="st56" cx="45.2" cy="236.3" r=".17"/>
  <circle class="st78" cx="751" cy="133.3" r="1.03"/>
  <circle class="st35" cx="1042.3" cy="92.2" r=".29"/>
  <circle class="st32" cx="940.2" cy="260" r=".37"/>
  <circle class="st38" cx="16.7" cy="54.3" r=".37"/>
  <circle class="st28" cx="1493.7" cy="142.3" r=".74"/>
  <circle class="st61" cx="566.7" cy="60.4" r=".31"/>
  <circle class="st11" cx="595.8" cy="302.5" r=".19"/>
  <circle class="st4" cx="1536.5" cy="89.4" r=".16"/>
  <circle class="st53" cx="1286.6" cy="235" r=".2"/>
  <circle class="st19" cx="92.1" cy="73.8" r=".21"/>
  <circle class="st10" cx="635.7" cy="349.6" r=".2"/>
  <circle class="st57" cx="432.1" cy="53" r=".24"/>
  <circle class="st26" cx="1582.7" cy="280.7" r=".78"/>
  <circle class="st88" cx="1246.4" cy="354.3" r=".37"/>
  <circle class="st39" cx="1330.1" cy="324.8" r=".21"/>
  <circle class="st54" cx="1580.2" cy="387.2" r="1.46"/>
  <circle class="st7" cx="1462.5" cy="145.9" r=".63"/>
  <circle class="st34" cx="1412.8" cy="59.1" r=".95"/>
  <circle class="st6" cx="876.2" cy="186.9" r=".26"/>
  <circle class="st77" cx="749.3" cy="375.9" r=".12"/>
  <circle class="st16" cx="945.6" cy="61.6" r=".28"/>
  <circle class="st72" cx="53.9" cy="390.9" r=".87"/>
  <circle class="st9" cx="819.3" cy="296" r=".43"/>
  <circle class="st74" cx="768.1" cy="281.5" r=".62"/>
  <circle class="st35" cx="958.9" cy="11.9" r=".38"/>
  <circle class="st75" cx="393.2" cy="144.8" r="1.08"/>
  <circle class="st45" cx="1418.2" cy="373.2" r=".36"/>
  <circle class="st42" cx="660.8" cy="232.7" r=".32"/>
  <circle class="st29" cx="634.2" cy="144.8" r=".36"/>
  <circle class="st74" cx="230.3" cy="142.2" r=".27"/>
  <circle class="st76" cx="1249.9" cy="111.6" r=".38"/>
  <circle class="st62" cx="614.7" cy="154.8" r=".2"/>
  <circle class="st10" cx="629.8" cy="325.1" r=".15"/>
  <circle class="st66" cx="1087.6" cy="259.6" r=".38"/>
  <circle class="st44" cx="349.7" cy="289" r="1.28"/>
  <circle class="st91" cx="1275.5" cy="18.5" r="1.03"/>
  <circle class="st88" cx="208.9" cy="188.7" r=".3"/>
  <circle class="st12" cx="1539.3" cy="367.5" r=".12"/>
  <circle class="st86" cx="870" cy="303.7" r=".16"/>
  <circle class="st41" cx="246.1" cy="11.2" r=".18"/>
  <circle class="st12" cx="501" cy="19.4" r=".14"/>
  <circle class="st35" cx="1378.5" cy="204.2" r=".34"/>
  <circle class="st53" cx="899.9" cy="304.9" r=".6"/>
  <circle class="st31" cx="766" cy="362.2" r=".92"/>
  <circle class="st56" cx="313.5" cy="122.7" r=".36"/>
  <circle class="st46" cx="751" cy="118.6" r=".26"/>
  <circle class="st74" cx="1229" cy="337.3" r=".4"/>
  <circle class="st39" cx="674" cy="111.5" r=".25"/>
  <circle class="st77" cx="1309.9" cy="238.2" r=".32"/>
  <circle class="st88" cx="1451.1" cy="269.8" r=".37"/>
  <circle class="st49" cx="683.6" cy="294.6" r=".2"/>
  <circle class="st52" cx="708" cy="262.6" r=".93"/>
  <circle class="st69" cx="332.3" cy="262.9" r=".19"/>
  <circle class="st29" cx="640" cy="271.5" r=".32"/>
  <circle class="st91" cx="1458.8" cy="187.8" r=".45"/>
  <circle class="st18" cx="876" cy="148.2" r=".39"/>
  <circle class="st60" cx="724.3" cy="30.8" r=".32"/>
  <circle class="st74" cx="301.8" cy="122" r=".45"/>
  <circle class="st56" cx="1457.6" cy="105" r=".19"/>
  <circle class="st86" cx="853.7" cy="53.1" r=".26"/>
  <circle class="st59" cx="1012.1" cy="21.8" r=".3"/>
  <circle class="st34" cx="1202.4" cy="366.9" r=".41"/>
  <circle class="st75" cx="1381.7" cy="235.2" r=".13"/>
  <circle class="st80" cx="1494.2" cy="383.6" r=".3"/>
  <circle class="st49" cx="803.2" cy="295.8" r=".33"/>
  <circle class="st49" cx="754.6" cy="335.8" r=".38"/>
  <circle class="st66" cx="933.6" cy="4.4" r=".77"/>
  <circle class="st22" cx="175.9" cy="261.1" r=".9"/>
  <circle class="st17" cx="338" cy="113.3" r=".97"/>
  <circle class="st6" cx="295.5" cy="229.4" r="1.05"/>
  <circle class="st6" cx="478.7" cy="127.1" r=".19"/>
  <circle class="st59" cx="663" cy="281.7" r=".2"/>
  <circle class="st47" cx="896.6" cy="313" r=".17"/>
  <circle class="st32" cx="1426.7" cy="177" r=".26"/>
  <circle class="st7" cx="1407.8" cy="188.3" r=".41"/>
  <circle class="st66" cx="1512.3" cy="360.1" r=".77"/>
  <circle class="st91" cx="1464" cy="229.1" r="1.22"/>
  <circle class="st13" cx="1118.1" cy="202" r=".22"/>
  <circle class="st9" cx="1132" cy="327" r=".23"/>
  <circle class="st26" cx="1268.5" cy="40.3" r=".14"/>
  <circle class="st22" cx="1050.1" cy="318.9" r=".22"/>
  <circle class="st40" cx="1222.8" cy="86.7" r=".18"/>
  <circle class="st56" cx="1325" cy="81" r=".83"/>
  <circle class="st20" cx="1563.7" cy="99.5" r=".11"/>
  <circle class="st57" cx="855.3" cy="318" r=".24"/>
  <circle class="st67" cx="873.7" cy="297.5" r=".3"/>
  <circle class="st29" cx="50.2" cy="306.3" r=".24"/>
  <circle class="st7" cx="185.7" cy="383.1" r=".94"/>
  <circle class="st53" cx="1427.3" cy="183.8" r=".32"/>
  <circle class="st58" cx="151.5" cy="89.1" r=".23"/>
  <circle class="st50" cx="677.3" cy="11.8" r=".81"/>
  <circle class="st94" cx="1276.8" cy="133.7" r=".16"/>
  <circle class="st31" cx="1249.8" cy="375.3" r=".64"/>
  <circle class="st68" cx="923.9" cy="73.1" r=".28"/>
  <circle class="st22" cx="473.4" cy="203.5" r=".3"/>
  <circle class="st11" cx="1030.2" cy="164.1" r=".15"/>
  <circle class="st9" cx="1355.2" cy="17.6" r=".42"/>
  <circle class="st71" cx="724.1" cy="43.1" r=".12"/>
  <circle class="st7" cx="1354.5" cy="346.9" r=".16"/>
  <circle class="st10" cx="1104.2" cy="341.8" r=".82"/>
  <circle class="st80" cx="1155.7" cy="364.5" r=".28"/>
  <circle class="st11" cx="1581.3" cy="155.9" r=".39"/>
  <circle class="st62" cx="803.9" cy="156.6" r=".16"/>
  <circle class="st80" cx="1212.9" cy="282.1" r=".39"/>
  <circle class="st80" cx="1474.9" cy="13" r="1.05"/>
  <circle class="st67" cx="98.9" cy="37.1" r=".4"/>
  <circle class="st14" cx="1289.1" cy="42.8" r=".19"/>
  <circle class="st9" cx="547.3" cy="197" r=".32"/>
  <circle class="st47" cx="1008.5" cy="7.6" r=".43"/>
  <circle class="st9" cx="1525" cy="341" r=".12"/>
  <circle class="st31" cx="339.7" cy="273.4" r=".22"/>
  <circle class="st91" cx="815.9" cy="361.4" r=".23"/>
  <circle class="st4" cx="987.7" cy="40.5" r=".44"/>
  <circle class="st41" cx="1424" cy="40.6" r=".67"/>
  <circle class="st38" cx="1277.1" cy="118.4" r=".28"/>
  <circle class="st61" cx="153.6" cy="381.5" r=".42"/>
  <circle class="st48" cx="329.4" cy="344.7" r=".3"/>
  <circle class="st50" cx="1150.5" cy="244.4" r=".73"/>
  <circle class="st10" cx="739.8" cy="188.7" r=".15"/>
  <circle class="st41" cx="1569.3" cy="307.5" r=".2"/>
  <circle class="st18" cx="868.4" cy="386.2" r=".17"/>
  <circle class="st28" cx="229" cy="230.4" r=".85"/>
  <circle class="st9" cx="1271.2" cy="284" r=".42"/>
  <circle class="st62" cx="1397.5" cy="73.8" r=".44"/>
  <circle class="st76" cx="769.2" cy="112.9" r=".65"/>
  <circle class="st78" cx="1271.9" cy="299.2" r=".31"/>
  <circle class="st53" cx="291.6" cy="124.6" r=".16"/>
  <circle class="st58" cx="459.7" cy="313.8" r=".23"/>
  <circle class="st91" cx="1549" cy="321.3" r=".37"/>
  <circle class="st88" cx="37.6" cy="7.4" r=".38"/>
  <circle class="st57" cx="1087.3" cy="95.6" r=".91"/>
  <circle class="st25" cx="1348.4" cy="349.5" r=".48"/>
  <circle class="st70" cx="416.5" cy="80.6" r="2.04"/>
  <circle class="st57" cx="1006.1" cy="179.2" r=".44"/>
  <circle class="st57" cx="1488.8" cy="224" r=".32"/>
  <circle class="st49" cx="1036" cy="69.2" r=".21"/>
  <circle class="st35" cx="409.9" cy="336.4" r=".45"/>
  <circle class="st41" cx="360.9" cy="287" r=".44"/>
  <circle class="st40" cx="81.5" cy="35.3" r=".23"/>
  <circle class="st78" cx="1205.9" cy="150" r=".37"/>
  <circle class="st88" cx="1297.1" cy="199" r=".33"/>
  <circle class="st88" cx="1299" cy="196.3" r=".5"/>
  <circle class="st64" cx="1376.8" cy="166.9" r="2.05"/>
  <circle class="st5" cx="1312" cy="63.8" r=".39"/>
  <circle class="st20" cx="531.3" cy="115.7" r=".23"/>
  <circle class="st6" cx="100.6" cy="365.7" r=".34"/>
  <circle class="st32" cx="1541.4" cy="178.7" r=".17"/>
  <circle class="st11" cx="1260.2" cy="144.8" r=".39"/>
  <circle class="st59" cx="259.4" cy="18.7" r=".57"/>
  <circle class="st76" cx="1291.7" cy="71.7" r=".14"/>
  <circle class="st38" cx="260.6" cy="343.5" r=".36"/>
  <circle class="st66" cx="441.4" cy="395.4" r=".53"/>
  <circle class="st50" cx="138.4" cy="246" r=".2"/>
  <circle class="st38" cx="1354.8" cy="85.9" r=".16"/>
  <circle class="st31" cx="785.6" cy="374.2" r=".39"/>
  <circle class="st66" cx="1572.2" cy="240" r=".36"/>
  <circle class="st29" cx="84.1" cy="321.8" r="1.02"/>
  <circle class="st11" cx="559.7" cy="71.8" r=".36"/>
  <circle class="st32" cx="396.8" cy="289.8" r=".36"/>
  <circle class="st78" cx="1302" cy="249.4" r=".65"/>
  <circle class="st10" cx="463.2" cy="366.1" r=".14"/>
  <circle class="st8" cx="1369.1" cy="132.6" r=".39"/>
  <circle class="st58" cx="1469.5" cy="30.5" r=".12"/>
  <circle class="st63" cx="727.2" cy="222" r=".15"/>
  <circle class="st58" cx="1233.3" cy="224" r=".18"/>
  <circle class="st15" cx="508.5" cy="120.7" r=".61"/>
  <circle class="st78" cx="1489.6" cy="129.4" r=".42"/>
  <circle class="st20" cx="192.9" cy="161.2" r=".39"/>
  <circle class="st22" cx="1377.7" cy="20.5" r=".45"/>
  <circle class="st59" cx="759.8" cy="183.6" r=".41"/>
  <circle class="st67" cx="1323.9" cy="184.7" r=".67"/>
  <circle class="st62" cx="847" cy="311.2" r=".7"/>
  <circle class="st49" cx="1269.2" cy="258.9" r=".34"/>
  <circle class="st95" cx="1374.5" cy="180" r=".26"/>
  <circle class="st67" cx="367.7" cy="283.3" r=".43"/>
  <circle class="st20" cx="995.9" cy="359" r=".84"/>
  <circle class="st67" cx="893.2" cy="273.1" r=".76"/>
  <circle class="st48" cx="1407.8" cy="373.1" r="2.38"/>
  <circle class="st2" cx="1216.7" cy="31.7" r=".39"/>
  <circle class="st78" cx="493.9" cy="67.4" r=".34"/>
  <circle class="st61" cx="95.7" cy="28.5" r=".24"/>
  <circle class="st13" cx="1235" cy="197.8" r=".28"/>
  <circle class="st11" cx="1193.7" cy="358.6" r=".43"/>
  <circle class="st13" cx="314.4" cy="329.8" r=".2"/>
  <circle class="st8" cx="248.6" cy="88.9" r=".62"/>
  <circle class="st61" cx="361.2" cy="188.1" r=".41"/>
  <circle class="st29" cx="1352.1" cy="34.4" r=".62"/>
  <circle class="st28" cx="499.4" cy="12.2" r=".16"/>
  <circle class="st57" cx="314.2" cy="95.7" r=".32"/>
  <circle class="st77" cx="382" cy="262.1" r=".38"/>
  <circle class="st39" cx="820.3" cy="295.2" r=".3"/>
  <circle class="st20" cx="919.5" cy="26.5" r=".34"/>
  <circle class="st17" cx="185.8" cy="369.2" r=".41"/>
  <circle class="st42" cx="359.9" cy="95.7" r=".45"/>
  <circle class="st14" cx="578.9" cy="216.4" r=".29"/>
  <circle class="st25" cx="1040.7" cy="331.9" r=".29"/>
  <circle class="st12" cx="1448" cy="88.7" r=".33"/>
  <circle class="st60" cx="1070.5" cy="23.7" r=".13"/>
  <circle class="st62" cx="304.3" cy="319" r=".68"/>
  <circle class="st29" cx="730.4" cy="97.5" r=".3"/>
  <circle class="st18" cx="925.5" cy="237.3" r=".24"/>
  <circle class="st75" cx="895" cy="214.3" r=".81"/>
  <circle class="st76" cx="478.4" cy="169.8" r=".44"/>
  <circle class="st25" cx="1221.3" cy="306.7" r=".72"/>
  <circle class="st7" cx="1130.7" cy="298.1" r=".96"/>
  <circle class="st67" cx="1141.6" cy="257.4" r=".58"/>
  <circle class="st10" cx="1452.8" cy="307" r=".33"/>
  <circle class="st20" cx="770.2" cy="284.2" r="1.07"/>
  <circle class="st61" cx="610.4" cy="250.9" r=".16"/>
  <circle class="st56" cx="1549.8" cy="103.4" r=".42"/>
  <circle class="st57" cx="869" cy="249.8" r=".69"/>
  <circle class="st84" cx="863.8" cy="310.8" r=".37"/>
  <circle class="st58" cx="602.2" cy="135.6" r=".51"/>
  <circle class="st76" cx="254.3" cy="328.8" r=".29"/>
  <circle class="st7" cx="1280.8" cy="302.2" r="1.09"/>
  <circle class="st80" cx="1001.8" cy="235.5" r=".45"/>
  <circle class="st62" cx="303.3" cy="280.9" r=".4"/>
  <circle class="st61" cx="462.7" cy="360.2" r=".38"/>
  <circle class="st80" cx="1473.6" cy="222.8" r="1.02"/>
  <circle class="st37" cx="56.5" cy="174.9" r=".42"/>
  <circle class="st31" cx="279.6" cy="45.7" r=".45"/>
  <circle class="st22" cx="1575.2" cy="395.6" r=".28"/>
  <circle class="st49" cx="494.8" cy="394.7" r=".43"/>
  <circle class="st13" cx="1553.1" cy="129.6" r=".31"/>
  <circle class="st76" cx="10" cy="112.8" r=".41"/>
  <circle class="st24" cx="93.5" cy="21.4" r=".42"/>
  <circle class="st28" cx="1366.8" cy="325.9" r=".29"/>
  <circle class="st10" cx="795.8" cy="111" r=".27"/>
  <circle class="st25" cx="124.7" cy="104.2" r=".56"/>
  <circle class="st36" cx="743.8" cy="356" r=".88"/>
  <circle class="st3" cx="196.4" cy="250.3" r=".22"/>
  <circle class="st40" cx="164.7" cy="173.1" r=".94"/>
  <circle class="st10" cx="449.3" cy="234.6" r=".33"/>
  <circle class="st25" cx="1372.9" cy="82.1" r="1.03"/>
  <circle class="st73" cx="133.6" cy="334.9" r=".86"/>
  <circle class="st73" cx="1336.2" cy="240.1" r=".18"/>
  <circle class="st26" cx="1270.3" cy="91" r=".21"/>
  <circle class="st25" cx="728.6" cy="367.8" r=".42"/>
  <circle class="st23" cx="1343.5" cy="327.1" r="1.34"/>
  <circle class="st38" cx="31.7" cy="145.1" r=".19"/>
  <circle class="st20" cx="891.3" cy="304.5" r=".45"/>
  <circle class="st87" cx="1434" cy="13.3" r=".93"/>
  <circle class="st9" cx="717.6" cy="231.2" r="1.1"/>
  <circle class="st9" cx="743" cy="42.6" r=".34"/>
  <circle class="st70" cx="1378" cy="165.3" r=".35"/>
  <circle class="st26" cx="559.9" cy="26.2" r=".48"/>
  <circle class="st58" cx="699.2" cy="99.2" r=".63"/>
  <circle class="st32" cx="1533.5" cy="188.6" r=".35"/>
  <circle class="st77" cx="248.8" cy="143.1" r=".24"/>
  <circle class="st62" cx="683" cy="99.2" r=".1"/>
  <circle class="st88" cx="471.7" cy="58.5" r=".54"/>
  <circle class="st13" cx="584.6" cy="8.8" r=".32"/>
  <circle class="st28" cx="1568.6" cy="93.5" r=".64"/>
  <circle class="st2" cx="1044.7" cy="188.8" r=".29"/>
  <circle class="st74" cx="1582.8" cy="58.1" r=".16"/>
  <circle class="st59" cx="1106.2" cy="197.7" r="1.05"/>
  <circle class="st62" cx="331.8" cy="175.4" r=".41"/>
  <circle class="st91" cx="947.5" cy="99.3" r=".24"/>
  <circle class="st62" cx="653.2" cy="173.3" r=".19"/>
  <circle class="st14" cx="1503.7" cy="331.6" r=".71"/>
  <circle class="st83" cx="1131.3" cy="350.4" r=".39"/>
  <circle class="st28" cx="806.2" cy="129.5" r=".21"/>
  <circle class="st10" cx="974.2" cy="351.4" r=".43"/>
  <circle class="st10" cx="668.2" cy="45" r=".32"/>
  <circle class="st33" cx="553.2" cy="276.9" r="2.31"/>
  <circle class="st9" cx="294.1" cy="160.4" r=".37"/>
  <circle class="st41" cx="1160.6" cy="22.8" r=".24"/>
  <circle class="st91" cx="1043.2" cy="191.4" r=".41"/>
  <circle class="st58" cx="481.2" cy="67" r=".5"/>
  <circle class="st9" cx="119.5" cy="162.3" r=".36"/>
  <circle class="st71" cx="696.2" cy="22.5" r=".15"/>
  <circle class="st22" cx="182.6" cy="38.2" r=".14"/>
  <circle class="st49" cx="536.2" cy="202" r=".45"/>
  <circle class="st92" cx="710.5" cy="297.3" r=".2"/>
  <circle class="st13" cx="1410.1" cy="378.4" r=".38"/>
  <circle class="st58" cx="1173.2" cy="98.4" r=".55"/>
  <circle class="st78" cx="681.7" cy="358.6" r=".2"/>
  <circle class="st79" cx="368.1" cy="340" r="1.23"/>
  <circle class="st58" cx="1527.9" cy="247" r=".41"/>
  <circle class="st57" cx="746.2" cy="286.6" r=".39"/>
  <circle class="st6" cx="115.8" cy="284.9" r=".33"/>
  <circle class="st30" cx="1435.4" cy=".6" r="2.16"/>
  <circle class="st69" cx="649.2" cy="284.2" r=".79"/>
  <circle class="st74" cx="1276.7" cy="167.3" r=".28"/>
  <circle class="st16" cx="527.5" cy="128.9" r=".34"/>
  <circle class="st20" cx="1270" cy="371.8" r=".12"/>
  <circle class="st76" cx="199.8" cy="336.6" r=".41"/>
  <circle class="st86" cx="76.9" cy="21.4" r=".11"/>
  <circle class="st60" cx="385.7" cy="104.4" r=".19"/>
  <circle class="st83" cx="113.6" cy="3.2" r=".13"/>
  <circle class="st40" cx="1176.6" cy="294.1" r=".4"/>
  <circle class="st13" cx="798.8" cy="359.6" r=".16"/>
  <circle class="st40" cx="1520.3" cy="29.8" r=".53"/>
  <circle class="st50" cx="1468.1" cy="137.1" r=".15"/>
  <circle class="st28" cx="641.3" cy="206.4" r=".27"/>
  <circle class="st10" cx="301.8" cy="4.7" r=".5"/>
  <circle class="st15" cx="559.4" cy="174.4" r=".35"/>
  <circle class="st59" cx="575.5" cy="310.3" r=".27"/>
  <circle class="st61" cx="1573.3" cy="345.2" r=".23"/>
  <circle class="st38" cx="1272.6" cy="315" r=".67"/>
  <circle class="st91" cx="1120.7" cy="339.2" r=".22"/>
  <circle class="st31" cx="544.2" cy="361.4" r=".13"/>
  <circle class="st86" cx="1263.1" cy="329.7" r="1.02"/>
  <circle class="st38" cx="124.2" cy="107" r=".16"/>
  <circle class="st26" cx="45.4" cy="94.7" r=".38"/>
  <circle class="st67" cx="444.2" cy="380.5" r=".36"/>
  <circle class="st30" cx="1325" cy="96.2" r="1.74"/>
  <circle class="st56" cx="742.3" cy="163.1" r=".23"/>
  <circle class="st66" cx="1365.9" cy="185.8" r=".59"/>
  <circle class="st9" cx="768.2" cy="338.3" r=".16"/>
  <circle class="st53" cx="88.4" cy="392.9" r=".18"/>
  <circle class="st50" cx="1076.9" cy="13.9" r=".17"/>
  <circle class="st91" cx="314" cy="250.2" r=".2"/>
  <circle class="st56" cx="817.9" cy="222.4" r=".13"/>
  <circle class="st84" cx="307.8" cy="294.4" r=".44"/>
  <circle class="st28" cx="1413.1" cy="294.4" r=".68"/>
  <circle class="st19" cx="1366.3" cy="279.5" r=".3"/>
  <circle class="st80" cx="516.2" cy="329.3" r=".13"/>
  <circle class="st80" cx="924.2" cy="150.6" r=".84"/>
  <circle class="st34" cx="434.6" cy="7" r=".39"/>
  <circle class="st62" cx="963.1" cy="248.9" r=".42"/>
  <circle class="st74" cx="1446.4" cy="50.1" r=".88"/>
  <circle class="st58" cx="226.9" cy="271" r=".76"/>
  <circle class="st74" cx="827.9" cy="271.8" r="1.03"/>
  <circle class="st76" cx="766.8" cy="12.5" r="1.02"/>
  <circle class="st76" cx="1452.6" cy="361.2" r=".14"/>
  <circle class="st63" cx="866.8" cy="77.7" r=".44"/>
  <circle class="st61" cx="62.9" cy="22.6" r=".34"/>
  <circle class="st50" cx="56" cy="153.5" r=".44"/>
  <circle class="st35" cx="668.6" cy="273.3" r=".33"/>
  <circle class="st2" cx="9.5" cy="164" r=".2"/>
  <circle class="st86" cx="787" cy="253.3" r="1.1"/>
  <circle class="st90" cx="1154.8" cy="215" r="1.18"/>
  <circle class="st60" cx="206.3" cy="160.7" r=".11"/>
  <circle class="st43" cx="383.2" cy="252.9" r=".33"/>
  <circle class="st76" cx="235.4" cy="227.7" r=".54"/>
  <circle class="st59" cx="891.5" cy="190.5" r=".64"/>
  <circle class="st77" cx="651.6" cy="102.1" r=".84"/>
  <circle class="st85" cx="56.1" cy="40.4" r="2.22"/>
  <circle class="st83" cx="1202.2" cy="215.9" r=".37"/>
  <circle class="st29" cx="1384.3" cy="378.5" r=".42"/>
  <circle class="st28" cx="1482.6" cy="313.7" r=".31"/>
  <circle class="st21" cx="1028.9" cy="71.8" r="2.07"/>
  <circle class="st47" cx="473.1" cy="308.2" r=".18"/>
  <circle class="st75" cx="670.6" cy="328.9" r=".21"/>
  <circle class="st31" cx="1485.8" cy="67.6" r=".28"/>
  <circle class="st27" cx="161.5" cy="339.2" r="1.97"/>
  <rect class="st97" width="1584" height="396"/>
  <rect class="st98" width="1584" height="396"/>
  <rect class="st99" width="1584" height="396"/>
  <rect class="st100" width="1584" height="396"/>
  <rect class="st101" x="1579" width="5" height="396"/>
  <line class="st1" y1="338" x2="1584" y2="338"/>
  <text class="st51" transform="translate(643.84 118)"><tspan x="0" y="0">E-LEARNING DEVELOPER · INSTRUCTIONAL DESIGN · MULTIMEDIA PRODUCTION</tspan></text>
  <text class="st81" transform="translate(847.95 206)"><tspan x="0" y="0">ADAM LEIBLER</tspan></text>
  <rect class="st101" x="1082" y="218" width="430" height="2"/>
  <text class="st82" transform="translate(1205.88 254)"><tspan x="0" y="0">I Design Learning Experiences</tspan></text>
  <text class="st89" transform="translate(1184.6 288)"><tspan x="0" y="0">That Actually Change Behavior.</tspan></text>
  <text class="st65" transform="translate(1396.06 372)"><tspan x="0" y="0">adamleibler.com</tspan></text>
  <rect class="st0" x="72" y="128" width="248" height="54" rx="3" ry="3"/>
  <text class="st93" transform="translate(141.45 162)"><tspan x="0" y="0">AI FLUENT</tspan></text>
  <line class="st1" x1="72" y1="210" x2="320" y2="210"/>
  <text class="st55" transform="translate(72 234)"><tspan x="0" y="0">U.S. ARMY VETERAN</tspan></text>
  <text class="st55" transform="translate(72 256)"><tspan x="0" y="0">TWITCH PARTNER</tspan></text>
  <text class="st55" transform="translate(72 278)"><tspan x="0" y="0">U OF L</tspan></text>
</svg>