<svg xmlns="http://www.w3.org/2000/svg" viewBox="0 0 1584 396" width="1584" height="396">
  <defs>
    <style>
      @import url('https://fonts.googleapis.com/css2?family=Orbitron:wght@800&amp;family=Lato:wght@300;400;700&amp;display=swap');
      .name        { font-family: 'Orbitron', sans-serif; font-size: 72px; font-weight: 800; fill: #F8FAFC; letter-spacing: 3px; }
      .eyebrow     { font-family: 'Lato', sans-serif; font-size: 14px; font-weight: 700; fill: #00D2FF; letter-spacing: 5px; }
      .tagline     { font-family: 'Lato', sans-serif; font-size: 24px; font-weight: 300; fill: #CBD5E0; }
      .tagline-hi  { font-family: 'Lato', sans-serif; font-size: 24px; font-weight: 400; fill: #00D2FF; }
      .url         { font-family: 'Lato', sans-serif; font-size: 12px; font-weight: 400; fill: #4A5568; letter-spacing: 2px; }
      .badge-text  { font-family: 'Orbitron', sans-serif; font-size: 14px; font-weight: 700; fill: #FF6B35; letter-spacing: 4px; }
      .cred        { font-family: 'Lato', sans-serif; font-size: 12px; font-weight: 700; fill: #A0AEC0; letter-spacing: 5px; }
    </style>
    <radialGradient id="vig" cx="38%" cy="50%" r="65%" gradientUnits="objectBoundingBox"><stop offset="35%" stop-color="#040812" stop-opacity="0"/><stop offset="100%" stop-color="#040812" stop-opacity="0.74"/></radialGradient>
    
    <radialGradient id="neb_blue" cx="22%" cy="12%" r="38%" gradientUnits="objectBoundingBox">
      <stop offset="0%"   stop-color="#40e0ff" stop-opacity="0.38"/>
      <stop offset="40%"  stop-color="#0099cc" stop-opacity="0.18"/>
      <stop offset="100%" stop-color="#000000" stop-opacity="0"/>
    </radialGradient>
    <radialGradient id="neb_mag" cx="9%" cy="34%" r="34%" gradientUnits="objectBoundingBox">
      <stop offset="0%"   stop-color="#dd44cc" stop-opacity="0.32"/>
      <stop offset="40%"  stop-color="#881166" stop-opacity="0.14"/>
      <stop offset="100%" stop-color="#000000" stop-opacity="0"/>
    </radialGradient>
    <radialGradient id="neb_core" cx="16%" cy="20%" r="20%" gradientUnits="objectBoundingBox">
      <stop offset="0%"   stop-color="#ffffff" stop-opacity="0.10"/>
      <stop offset="100%" stop-color="#000000" stop-opacity="0"/>
    </radialGradient>
    <radialGradient id="fg0" cx="50%" cy="50%" r="50%"><stop offset="0%" stop-color="#00D2FF" stop-opacity="0.22"/><stop offset="100%" stop-color="#00D2FF" stop-opacity="0"/></radialGradient>
  <circle cx="1141" cy="71" r="15.400000000000002" fill="url(#fg0)"/>
  <circle cx="1141" cy="71" r="2.2" fill="rgb(210,240,255)" opacity="0.92"/>
  <radialGradient id="fg1" cx="50%" cy="50%" r="50%"><stop offset="0%" stop-color="#00D2FF" stop-opacity="0.22"/><stop offset="100%" stop-color="#00D2FF" stop-opacity="0"/></radialGradient>
  <circle cx="1395" cy="257" r="13.299999999999999" fill="url(#fg1)"/>
  <circle cx="1395" cy="257" r="1.9" fill="rgb(210,240,255)" opacity="0.92"/>
  <radialGradient id="fg2" cx="50%" cy="50%" r="50%"><stop offset="0%" stop-color="#00D2FF" stop-opacity="0.22"/><stop offset="100%" stop-color="#00D2FF" stop-opacity="0"/></radialGradient>
  <circle cx="903" cy="309" r="11.200000000000001" fill="url(#fg2)"/>
  <circle cx="903" cy="309" r="1.6" fill="rgb(210,240,255)" opacity="0.92"/>
  <radialGradient id="fg3" cx="50%" cy="50%" r="50%"><stop offset="0%" stop-color="#00D2FF" stop-opacity="0.22"/><stop offset="100%" stop-color="#00D2FF" stop-opacity="0"/></radialGradient>
  <circle cx="1507" cy="99" r="18.2" fill="url(#fg3)"/>
  <circle cx="1507" cy="99" r="2.6" fill="rgb(210,240,255)" opacity="0.92"/>
  <radialGradient id="fg4" cx="50%" cy="50%" r="50%"><stop offset="0%" stop-color="#00D2FF" stop-opacity="0.22"/><stop offset="100%" stop-color="#00D2FF" stop-opacity="0"/></radialGradient>
  <circle cx="998" cy="40" r="9.799999999999999" fill="url(#fg4)"/>
  <circle cx="998" cy="40" r="1.4" fill="rgb(210,240,255)" opacity="0.92"/>
  </defs>

  <rect width="1584" height="396" fill="#060D1A"/>
  <circle cx="1084.4" cy="385.6" r="0.42" fill="rgb(248,250,252)" opacity="0.5"/>
  <circle cx="10.4" cy="5.2" r="0.33" fill="rgb(248,250,252)" opacity="0.46"/>
  <circle cx="964.4" cy="145.6" r="0.3" fill="rgb(248,250,252)" opacity="0.4"/>
  <circle cx="1473.0" cy="79.7" r="0.42" fill="rgb(248,250,252)" opacity="0.45"/>
  <circle cx="919.8" cy="97.4" r="0.31" fill="rgb(248,250,252)" opacity="0.22"/>
  <circle cx="1428.9" cy="134.6" r="0.41" fill="rgb(248,250,252)" opacity="0.46"/>
  <circle cx="1460.2" cy="384.0" r="0.37" fill="rgb(248,250,252)" opacity="0.51"/>
  <circle cx="952.6" cy="370.3" r="0.13" fill="rgb(248,250,252)" opacity="0.34"/>
  <circle cx="818.2" cy="63.1" r="0.22" fill="rgb(248,250,252)" opacity="0.58"/>
  <circle cx="1067.6" cy="355.9" r="0.89" fill="rgb(248,250,252)" opacity="0.64"/>
  <circle cx="1100.9" cy="32.9" r="0.16" fill="rgb(248,250,252)" opacity="0.26"/>
  <circle cx="380.3" cy="230.8" r="0.12" fill="rgb(248,250,252)" opacity="0.28"/>
  <circle cx="45.2" cy="236.3" r="0.17" fill="rgb(248,250,252)" opacity="0.47"/>
  <circle cx="751.0" cy="133.3" r="1.03" fill="rgb(248,250,252)" opacity="0.59"/>
  <circle cx="1042.3" cy="92.2" r="0.29" fill="rgb(248,250,252)" opacity="0.43"/>
  <circle cx="940.2" cy="260.0" r="0.37" fill="rgb(248,250,252)" opacity="0.51"/>
  <circle cx="16.7" cy="54.3" r="0.37" fill="rgb(248,250,252)" opacity="0.55"/>
  <circle cx="1493.7" cy="142.3" r="0.74" fill="rgb(248,250,252)" opacity="0.52"/>
  <circle cx="566.7" cy="60.4" r="0.31" fill="rgb(248,250,252)" opacity="0.64"/>
  <circle cx="595.8" cy="302.5" r="0.19" fill="rgb(248,250,252)" opacity="0.48"/>
  <circle cx="1536.5" cy="89.4" r="0.16" fill="rgb(248,250,252)" opacity="0.27"/>
  <circle cx="1286.6" cy="235.0" r="0.2" fill="rgb(248,250,252)" opacity="0.41"/>
  <circle cx="92.1" cy="73.8" r="0.21" fill="rgb(180,225,255)" opacity="0.32"/>
  <circle cx="635.7" cy="349.6" r="0.2" fill="rgb(248,250,252)" opacity="0.23"/>
  <circle cx="432.1" cy="53.0" r="0.24" fill="rgb(248,250,252)" opacity="0.24"/>
  <circle cx="1582.7" cy="280.7" r="0.78" fill="rgb(248,250,252)" opacity="0.49"/>
  <circle cx="1246.4" cy="354.3" r="0.37" fill="rgb(248,250,252)" opacity="0.37"/>
  <circle cx="1330.1" cy="324.8" r="0.21" fill="rgb(180,225,255)" opacity="0.34"/>
  <circle cx="1580.2" cy="387.2" r="1.46" fill="rgb(180,225,255)" opacity="0.82"/>
  <circle cx="1462.5" cy="145.9" r="0.63" fill="rgb(248,250,252)" opacity="0.42"/>
  <circle cx="1412.8" cy="59.1" r="0.95" fill="rgb(180,225,255)" opacity="0.22"/>
  <circle cx="876.2" cy="186.9" r="0.26" fill="rgb(248,250,252)" opacity="0.38"/>
  <circle cx="749.3" cy="375.9" r="0.12" fill="rgb(248,250,252)" opacity="0.4"/>
  <circle cx="945.6" cy="61.6" r="0.28" fill="rgb(180,225,255)" opacity="0.52"/>
  <circle cx="53.9" cy="390.9" r="0.87" fill="rgb(180,225,255)" opacity="0.49"/>
  <circle cx="819.3" cy="296.0" r="0.43" fill="rgb(248,250,252)" opacity="0.5"/>
  <circle cx="768.1" cy="281.5" r="0.62" fill="rgb(248,250,252)" opacity="0.58"/>
  <circle cx="958.9" cy="11.9" r="0.38" fill="rgb(248,250,252)" opacity="0.43"/>
  <circle cx="393.2" cy="144.8" r="1.08" fill="rgb(248,250,252)" opacity="0.25"/>
  <circle cx="1418.2" cy="373.2" r="0.36" fill="rgb(180,225,255)" opacity="0.43"/>
  <circle cx="660.8" cy="232.7" r="0.32" fill="rgb(180,225,255)" opacity="0.33"/>
  <circle cx="634.2" cy="144.8" r="0.36" fill="rgb(248,250,252)" opacity="0.31"/>
  <circle cx="230.3" cy="142.2" r="0.27" fill="rgb(248,250,252)" opacity="0.58"/>
  <circle cx="1249.9" cy="111.6" r="0.38" fill="rgb(248,250,252)" opacity="0.21"/>
  <circle cx="614.7" cy="154.8" r="0.2" fill="rgb(248,250,252)" opacity="0.46"/>
  <circle cx="629.8" cy="325.1" r="0.15" fill="rgb(248,250,252)" opacity="0.23"/>
  <circle cx="1087.6" cy="259.6" r="0.38" fill="rgb(248,250,252)" opacity="0.53"/>
  <circle cx="349.7" cy="289.0" r="1.28" fill="rgb(248,250,252)" opacity="0.7"/>
  <circle cx="1275.5" cy="18.5" r="1.03" fill="rgb(248,250,252)" opacity="0.6"/>
  <circle cx="208.9" cy="188.7" r="0.3" fill="rgb(248,250,252)" opacity="0.37"/>
  <circle cx="1539.3" cy="367.5" r="0.12" fill="rgb(248,250,252)" opacity="0.29"/>
  <circle cx="870.0" cy="303.7" r="0.16" fill="rgb(248,250,252)" opacity="0.2"/>
  <circle cx="246.1" cy="11.2" r="0.18" fill="rgb(248,250,252)" opacity="0.35"/>
  <circle cx="501.0" cy="19.4" r="0.14" fill="rgb(248,250,252)" opacity="0.29"/>
  <circle cx="1378.5" cy="204.2" r="0.34" fill="rgb(248,250,252)" opacity="0.43"/>
  <circle cx="899.9" cy="304.9" r="0.6" fill="rgb(248,250,252)" opacity="0.41"/>
  <circle cx="766.0" cy="362.2" r="0.92" fill="rgb(248,250,252)" opacity="0.33"/>
  <circle cx="313.5" cy="122.7" r="0.36" fill="rgb(248,250,252)" opacity="0.47"/>
  <circle cx="751.0" cy="118.6" r="0.26" fill="rgb(180,225,255)" opacity="0.24"/>
  <circle cx="1229.0" cy="337.3" r="0.4" fill="rgb(248,250,252)" opacity="0.58"/>
  <circle cx="674.0" cy="111.5" r="0.25" fill="rgb(180,225,255)" opacity="0.34"/>
  <circle cx="1309.9" cy="238.2" r="0.32" fill="rgb(248,250,252)" opacity="0.4"/>
  <circle cx="1451.1" cy="269.8" r="0.37" fill="rgb(248,250,252)" opacity="0.37"/>
  <circle cx="683.6" cy="294.6" r="0.2" fill="rgb(248,250,252)" opacity="0.26"/>
  <circle cx="708.0" cy="262.6" r="0.93" fill="rgb(180,225,255)" opacity="0.53"/>
  <circle cx="332.3" cy="262.9" r="0.19" fill="rgb(180,225,255)" opacity="0.37"/>
  <circle cx="640.0" cy="271.5" r="0.32" fill="rgb(248,250,252)" opacity="0.31"/>
  <circle cx="1458.8" cy="187.8" r="0.45" fill="rgb(248,250,252)" opacity="0.6"/>
  <circle cx="876.0" cy="148.2" r="0.39" fill="rgb(180,225,255)" opacity="0.59"/>
  <circle cx="724.3" cy="30.8" r="0.32" fill="rgb(248,250,252)" opacity="0.34"/>
  <circle cx="301.8" cy="122.0" r="0.45" fill="rgb(248,250,252)" opacity="0.58"/>
  <circle cx="1457.6" cy="105.0" r="0.19" fill="rgb(248,250,252)" opacity="0.47"/>
  <circle cx="853.7" cy="53.1" r="0.26" fill="rgb(248,250,252)" opacity="0.2"/>
  <circle cx="1012.1" cy="21.8" r="0.3" fill="rgb(248,250,252)" opacity="0.36"/>
  <circle cx="1202.4" cy="366.9" r="0.41" fill="rgb(180,225,255)" opacity="0.22"/>
  <circle cx="1381.7" cy="235.2" r="0.13" fill="rgb(248,250,252)" opacity="0.25"/>
  <circle cx="1494.2" cy="383.6" r="0.3" fill="rgb(248,250,252)" opacity="0.57"/>
  <circle cx="803.2" cy="295.8" r="0.33" fill="rgb(248,250,252)" opacity="0.26"/>
  <circle cx="754.6" cy="335.8" r="0.38" fill="rgb(248,250,252)" opacity="0.26"/>
  <circle cx="933.6" cy="4.4" r="0.77" fill="rgb(248,250,252)" opacity="0.53"/>
  <circle cx="175.9" cy="261.1" r="0.9" fill="rgb(248,250,252)" opacity="0.61"/>
  <circle cx="338.0" cy="113.3" r="0.97" fill="rgb(180,225,255)" opacity="0.23"/>
  <circle cx="295.5" cy="229.4" r="1.05" fill="rgb(248,250,252)" opacity="0.38"/>
  <circle cx="478.7" cy="127.1" r="0.19" fill="rgb(248,250,252)" opacity="0.38"/>
  <circle cx="663.0" cy="281.7" r="0.2" fill="rgb(248,250,252)" opacity="0.36"/>
  <circle cx="896.6" cy="313.0" r="0.17" fill="rgb(180,225,255)" opacity="0.36"/>
  <circle cx="1426.7" cy="177.0" r="0.26" fill="rgb(248,250,252)" opacity="0.51"/>
  <circle cx="1407.8" cy="188.3" r="0.41" fill="rgb(248,250,252)" opacity="0.42"/>
  <circle cx="1512.3" cy="360.1" r="0.77" fill="rgb(248,250,252)" opacity="0.53"/>
  <circle cx="1464.0" cy="229.1" r="1.22" fill="rgb(248,250,252)" opacity="0.6"/>
  <circle cx="1118.1" cy="202.0" r="0.22" fill="rgb(248,250,252)" opacity="0.3"/>
  <circle cx="1132.0" cy="327.0" r="0.23" fill="rgb(248,250,252)" opacity="0.5"/>
  <circle cx="1268.5" cy="40.3" r="0.14" fill="rgb(248,250,252)" opacity="0.49"/>
  <circle cx="1050.1" cy="318.9" r="0.22" fill="rgb(248,250,252)" opacity="0.61"/>
  <circle cx="1222.8" cy="86.7" r="0.18" fill="rgb(248,250,252)" opacity="0.44"/>
  <circle cx="1325.0" cy="81.0" r="0.83" fill="rgb(248,250,252)" opacity="0.47"/>
  <circle cx="1563.7" cy="99.5" r="0.11" fill="rgb(248,250,252)" opacity="0.54"/>
  <circle cx="855.3" cy="318.0" r="0.24" fill="rgb(248,250,252)" opacity="0.24"/>
  <circle cx="873.7" cy="297.5" r="0.3" fill="rgb(248,250,252)" opacity="0.63"/>
  <circle cx="50.2" cy="306.3" r="0.24" fill="rgb(248,250,252)" opacity="0.31"/>
  <circle cx="185.7" cy="383.1" r="0.94" fill="rgb(248,250,252)" opacity="0.42"/>
  <circle cx="1427.3" cy="183.8" r="0.32" fill="rgb(248,250,252)" opacity="0.41"/>
  <circle cx="151.5" cy="89.1" r="0.23" fill="rgb(248,250,252)" opacity="0.62"/>
  <circle cx="677.3" cy="11.8" r="0.81" fill="rgb(248,250,252)" opacity="0.28"/>
  <circle cx="1276.8" cy="133.7" r="0.16" fill="rgb(180,225,255)" opacity="0.64"/>
  <circle cx="1249.8" cy="375.3" r="0.64" fill="rgb(248,250,252)" opacity="0.33"/>
  <circle cx="923.9" cy="73.1" r="0.28" fill="rgb(180,225,255)" opacity="0.48"/>
  <circle cx="473.4" cy="203.5" r="0.3" fill="rgb(248,250,252)" opacity="0.61"/>
  <circle cx="1030.2" cy="164.1" r="0.15" fill="rgb(248,250,252)" opacity="0.48"/>
  <circle cx="1355.2" cy="17.6" r="0.42" fill="rgb(248,250,252)" opacity="0.5"/>
  <circle cx="724.1" cy="43.1" r="0.12" fill="rgb(180,225,255)" opacity="0.58"/>
  <circle cx="1354.5" cy="346.9" r="0.16" fill="rgb(248,250,252)" opacity="0.42"/>
  <circle cx="1104.2" cy="341.8" r="0.82" fill="rgb(248,250,252)" opacity="0.23"/>
  <circle cx="1155.7" cy="364.5" r="0.28" fill="rgb(248,250,252)" opacity="0.57"/>
  <circle cx="1581.3" cy="155.9" r="0.39" fill="rgb(248,250,252)" opacity="0.48"/>
  <circle cx="803.9" cy="156.6" r="0.16" fill="rgb(248,250,252)" opacity="0.46"/>
  <circle cx="1212.9" cy="282.1" r="0.39" fill="rgb(248,250,252)" opacity="0.57"/>
  <circle cx="1474.9" cy="13.0" r="1.05" fill="rgb(248,250,252)" opacity="0.57"/>
  <circle cx="98.9" cy="37.1" r="0.4" fill="rgb(248,250,252)" opacity="0.63"/>
  <circle cx="1289.1" cy="42.8" r="0.19" fill="rgb(248,250,252)" opacity="0.39"/>
  <circle cx="547.3" cy="197.0" r="0.32" fill="rgb(248,250,252)" opacity="0.5"/>
  <circle cx="1008.5" cy="7.6" r="0.43" fill="rgb(180,225,255)" opacity="0.36"/>
  <circle cx="1525.0" cy="341.0" r="0.12" fill="rgb(248,250,252)" opacity="0.5"/>
  <circle cx="339.7" cy="273.4" r="0.22" fill="rgb(248,250,252)" opacity="0.33"/>
  <circle cx="815.9" cy="361.4" r="0.23" fill="rgb(248,250,252)" opacity="0.6"/>
  <circle cx="987.7" cy="40.5" r="0.44" fill="rgb(248,250,252)" opacity="0.27"/>
  <circle cx="1424.0" cy="40.6" r="0.67" fill="rgb(248,250,252)" opacity="0.35"/>
  <circle cx="1277.1" cy="118.4" r="0.28" fill="rgb(248,250,252)" opacity="0.55"/>
  <circle cx="153.6" cy="381.5" r="0.42" fill="rgb(248,250,252)" opacity="0.64"/>
  <circle cx="329.4" cy="344.7" r="0.3" fill="rgb(248,250,252)" opacity="0.56"/>
  <circle cx="1150.5" cy="244.4" r="0.73" fill="rgb(248,250,252)" opacity="0.28"/>
  <circle cx="739.8" cy="188.7" r="0.15" fill="rgb(248,250,252)" opacity="0.23"/>
  <circle cx="1569.3" cy="307.5" r="0.2" fill="rgb(248,250,252)" opacity="0.35"/>
  <circle cx="868.4" cy="386.2" r="0.17" fill="rgb(180,225,255)" opacity="0.59"/>
  <circle cx="229.0" cy="230.4" r="0.85" fill="rgb(248,250,252)" opacity="0.52"/>
  <circle cx="1271.2" cy="284.0" r="0.42" fill="rgb(248,250,252)" opacity="0.5"/>
  <circle cx="1397.5" cy="73.8" r="0.44" fill="rgb(248,250,252)" opacity="0.46"/>
  <circle cx="769.2" cy="112.9" r="0.65" fill="rgb(248,250,252)" opacity="0.21"/>
  <circle cx="1271.9" cy="299.2" r="0.31" fill="rgb(248,250,252)" opacity="0.59"/>
  <circle cx="291.6" cy="124.6" r="0.16" fill="rgb(248,250,252)" opacity="0.41"/>
  <circle cx="459.7" cy="313.8" r="0.23" fill="rgb(248,250,252)" opacity="0.62"/>
  <circle cx="1549.0" cy="321.3" r="0.37" fill="rgb(248,250,252)" opacity="0.6"/>
  <circle cx="37.6" cy="7.4" r="0.38" fill="rgb(248,250,252)" opacity="0.37"/>
  <circle cx="1087.3" cy="95.6" r="0.91" fill="rgb(248,250,252)" opacity="0.24"/>
  <circle cx="1348.4" cy="349.5" r="0.48" fill="rgb(248,250,252)" opacity="0.32"/>
  <circle cx="416.5" cy="80.6" r="2.04" fill="rgb(248,250,252)" opacity="0.65"/>
  <circle cx="1006.1" cy="179.2" r="0.44" fill="rgb(248,250,252)" opacity="0.24"/>
  <circle cx="1488.8" cy="224.0" r="0.32" fill="rgb(248,250,252)" opacity="0.24"/>
  <circle cx="1036.0" cy="69.2" r="0.21" fill="rgb(248,250,252)" opacity="0.26"/>
  <circle cx="409.9" cy="336.4" r="0.45" fill="rgb(248,250,252)" opacity="0.43"/>
  <circle cx="360.9" cy="287.0" r="0.44" fill="rgb(248,250,252)" opacity="0.35"/>
  <circle cx="81.5" cy="35.3" r="0.23" fill="rgb(248,250,252)" opacity="0.44"/>
  <circle cx="1205.9" cy="150.0" r="0.37" fill="rgb(248,250,252)" opacity="0.59"/>
  <circle cx="1297.1" cy="199.0" r="0.33" fill="rgb(248,250,252)" opacity="0.37"/>
  <circle cx="1299.0" cy="196.3" r="0.5" fill="rgb(248,250,252)" opacity="0.37"/>
  <circle cx="1376.8" cy="166.9" r="2.05" fill="rgb(180,225,255)" opacity="0.77"/>
  <circle cx="1312.0" cy="63.8" r="0.39" fill="rgb(180,225,255)" opacity="0.29"/>
  <circle cx="531.3" cy="115.7" r="0.23" fill="rgb(248,250,252)" opacity="0.54"/>
  <circle cx="100.6" cy="365.7" r="0.34" fill="rgb(248,250,252)" opacity="0.38"/>
  <circle cx="1541.4" cy="178.7" r="0.17" fill="rgb(248,250,252)" opacity="0.51"/>
  <circle cx="1260.2" cy="144.8" r="0.39" fill="rgb(248,250,252)" opacity="0.48"/>
  <circle cx="259.4" cy="18.7" r="0.57" fill="rgb(248,250,252)" opacity="0.36"/>
  <circle cx="1291.7" cy="71.7" r="0.14" fill="rgb(248,250,252)" opacity="0.21"/>
  <circle cx="260.6" cy="343.5" r="0.36" fill="rgb(248,250,252)" opacity="0.55"/>
  <circle cx="441.4" cy="395.4" r="0.53" fill="rgb(248,250,252)" opacity="0.53"/>
  <circle cx="138.4" cy="246.0" r="0.2" fill="rgb(248,250,252)" opacity="0.28"/>
  <circle cx="1354.8" cy="85.9" r="0.16" fill="rgb(248,250,252)" opacity="0.55"/>
  <circle cx="785.6" cy="374.2" r="0.39" fill="rgb(248,250,252)" opacity="0.33"/>
  <circle cx="1572.2" cy="240.0" r="0.36" fill="rgb(248,250,252)" opacity="0.53"/>
  <circle cx="84.1" cy="321.8" r="1.02" fill="rgb(248,250,252)" opacity="0.31"/>
  <circle cx="559.7" cy="71.8" r="0.36" fill="rgb(248,250,252)" opacity="0.48"/>
  <circle cx="396.8" cy="289.8" r="0.36" fill="rgb(248,250,252)" opacity="0.51"/>
  <circle cx="1302.0" cy="249.4" r="0.65" fill="rgb(248,250,252)" opacity="0.59"/>
  <circle cx="463.2" cy="366.1" r="0.14" fill="rgb(248,250,252)" opacity="0.23"/>
  <circle cx="1369.1" cy="132.6" r="0.39" fill="rgb(180,225,255)" opacity="0.51"/>
  <circle cx="1469.5" cy="30.5" r="0.12" fill="rgb(248,250,252)" opacity="0.62"/>
  <circle cx="727.2" cy="222.0" r="0.15" fill="rgb(180,225,255)" opacity="0.35"/>
  <circle cx="1233.3" cy="224.0" r="0.18" fill="rgb(248,250,252)" opacity="0.62"/>
  <circle cx="508.5" cy="120.7" r="0.61" fill="rgb(180,225,255)" opacity="0.3"/>
  <circle cx="1489.6" cy="129.4" r="0.42" fill="rgb(248,250,252)" opacity="0.59"/>
  <circle cx="192.9" cy="161.2" r="0.39" fill="rgb(248,250,252)" opacity="0.54"/>
  <circle cx="1377.7" cy="20.5" r="0.45" fill="rgb(248,250,252)" opacity="0.61"/>
  <circle cx="759.8" cy="183.6" r="0.41" fill="rgb(248,250,252)" opacity="0.36"/>
  <circle cx="1323.9" cy="184.7" r="0.67" fill="rgb(248,250,252)" opacity="0.63"/>
  <circle cx="847.0" cy="311.2" r="0.7" fill="rgb(248,250,252)" opacity="0.46"/>
  <circle cx="1269.2" cy="258.9" r="0.34" fill="rgb(248,250,252)" opacity="0.26"/>
  <circle cx="1374.5" cy="180.0" r="0.26" fill="rgb(180,225,255)" opacity="0.27"/>
  <circle cx="367.7" cy="283.3" r="0.43" fill="rgb(248,250,252)" opacity="0.63"/>
  <circle cx="995.9" cy="359.0" r="0.84" fill="rgb(248,250,252)" opacity="0.54"/>
  <circle cx="893.2" cy="273.1" r="0.76" fill="rgb(248,250,252)" opacity="0.63"/>
  <circle cx="1407.8" cy="373.1" r="2.38" fill="rgb(248,250,252)" opacity="0.56"/>
  <circle cx="1216.7" cy="31.7" r="0.39" fill="rgb(248,250,252)" opacity="0.22"/>
  <circle cx="493.9" cy="67.4" r="0.34" fill="rgb(248,250,252)" opacity="0.59"/>
  <circle cx="95.7" cy="28.5" r="0.24" fill="rgb(248,250,252)" opacity="0.64"/>
  <circle cx="1235.0" cy="197.8" r="0.28" fill="rgb(248,250,252)" opacity="0.3"/>
  <circle cx="1193.7" cy="358.6" r="0.43" fill="rgb(248,250,252)" opacity="0.48"/>
  <circle cx="314.4" cy="329.8" r="0.2" fill="rgb(248,250,252)" opacity="0.3"/>
  <circle cx="248.6" cy="88.9" r="0.62" fill="rgb(180,225,255)" opacity="0.51"/>
  <circle cx="361.2" cy="188.1" r="0.41" fill="rgb(248,250,252)" opacity="0.64"/>
  <circle cx="1352.1" cy="34.4" r="0.62" fill="rgb(248,250,252)" opacity="0.31"/>
  <circle cx="499.4" cy="12.2" r="0.16" fill="rgb(248,250,252)" opacity="0.52"/>
  <circle cx="314.2" cy="95.7" r="0.32" fill="rgb(248,250,252)" opacity="0.24"/>
  <circle cx="382.0" cy="262.1" r="0.38" fill="rgb(248,250,252)" opacity="0.4"/>
  <circle cx="820.3" cy="295.2" r="0.3" fill="rgb(180,225,255)" opacity="0.34"/>
  <circle cx="919.5" cy="26.5" r="0.34" fill="rgb(248,250,252)" opacity="0.54"/>
  <circle cx="185.8" cy="369.2" r="0.41" fill="rgb(180,225,255)" opacity="0.23"/>
  <circle cx="359.9" cy="95.7" r="0.45" fill="rgb(180,225,255)" opacity="0.33"/>
  <circle cx="578.9" cy="216.4" r="0.29" fill="rgb(248,250,252)" opacity="0.39"/>
  <circle cx="1040.7" cy="331.9" r="0.29" fill="rgb(248,250,252)" opacity="0.32"/>
  <circle cx="1448.0" cy="88.7" r="0.33" fill="rgb(248,250,252)" opacity="0.29"/>
  <circle cx="1070.5" cy="23.7" r="0.13" fill="rgb(248,250,252)" opacity="0.34"/>
  <circle cx="304.3" cy="319.0" r="0.68" fill="rgb(248,250,252)" opacity="0.46"/>
  <circle cx="730.4" cy="97.5" r="0.3" fill="rgb(248,250,252)" opacity="0.31"/>
  <circle cx="925.5" cy="237.3" r="0.24" fill="rgb(180,225,255)" opacity="0.59"/>
  <circle cx="895.0" cy="214.3" r="0.81" fill="rgb(248,250,252)" opacity="0.25"/>
  <circle cx="478.4" cy="169.8" r="0.44" fill="rgb(248,250,252)" opacity="0.21"/>
  <circle cx="1221.3" cy="306.7" r="0.72" fill="rgb(248,250,252)" opacity="0.32"/>
  <circle cx="1130.7" cy="298.1" r="0.96" fill="rgb(248,250,252)" opacity="0.42"/>
  <circle cx="1141.6" cy="257.4" r="0.58" fill="rgb(248,250,252)" opacity="0.63"/>
  <circle cx="1452.8" cy="307.0" r="0.33" fill="rgb(248,250,252)" opacity="0.23"/>
  <circle cx="770.2" cy="284.2" r="1.07" fill="rgb(248,250,252)" opacity="0.54"/>
  <circle cx="610.4" cy="250.9" r="0.16" fill="rgb(248,250,252)" opacity="0.64"/>
  <circle cx="1549.8" cy="103.4" r="0.42" fill="rgb(248,250,252)" opacity="0.47"/>
  <circle cx="869.0" cy="249.8" r="0.69" fill="rgb(248,250,252)" opacity="0.24"/>
  <circle cx="863.8" cy="310.8" r="0.37" fill="rgb(180,225,255)" opacity="0.57"/>
  <circle cx="602.2" cy="135.6" r="0.51" fill="rgb(248,250,252)" opacity="0.62"/>
  <circle cx="254.3" cy="328.8" r="0.29" fill="rgb(248,250,252)" opacity="0.21"/>
  <circle cx="1280.8" cy="302.2" r="1.09" fill="rgb(248,250,252)" opacity="0.42"/>
  <circle cx="1001.8" cy="235.5" r="0.45" fill="rgb(248,250,252)" opacity="0.57"/>
  <circle cx="303.3" cy="280.9" r="0.4" fill="rgb(248,250,252)" opacity="0.46"/>
  <circle cx="462.7" cy="360.2" r="0.38" fill="rgb(248,250,252)" opacity="0.64"/>
  <circle cx="1473.6" cy="222.8" r="1.02" fill="rgb(248,250,252)" opacity="0.57"/>
  <circle cx="56.5" cy="174.9" r="0.42" fill="rgb(180,225,255)" opacity="0.62"/>
  <circle cx="279.6" cy="45.7" r="0.45" fill="rgb(248,250,252)" opacity="0.33"/>
  <circle cx="1575.2" cy="395.6" r="0.28" fill="rgb(248,250,252)" opacity="0.61"/>
  <circle cx="494.8" cy="394.7" r="0.43" fill="rgb(248,250,252)" opacity="0.26"/>
  <circle cx="1553.1" cy="129.6" r="0.31" fill="rgb(248,250,252)" opacity="0.3"/>
  <circle cx="10.0" cy="112.8" r="0.41" fill="rgb(248,250,252)" opacity="0.21"/>
  <circle cx="93.5" cy="21.4" r="0.42" fill="rgb(180,225,255)" opacity="0.44"/>
  <circle cx="1366.8" cy="325.9" r="0.29" fill="rgb(248,250,252)" opacity="0.52"/>
  <circle cx="795.8" cy="111.0" r="0.27" fill="rgb(248,250,252)" opacity="0.23"/>
  <circle cx="124.7" cy="104.2" r="0.56" fill="rgb(248,250,252)" opacity="0.32"/>
  <circle cx="743.8" cy="356.0" r="0.88" fill="rgb(180,225,255)" opacity="0.56"/>
  <circle cx="196.4" cy="250.3" r="0.22" fill="rgb(180,225,255)" opacity="0.2"/>
  <circle cx="164.7" cy="173.1" r="0.94" fill="rgb(248,250,252)" opacity="0.44"/>
  <circle cx="449.3" cy="234.6" r="0.33" fill="rgb(248,250,252)" opacity="0.23"/>
  <circle cx="1372.9" cy="82.1" r="1.03" fill="rgb(248,250,252)" opacity="0.32"/>
  <circle cx="133.6" cy="334.9" r="0.86" fill="rgb(180,225,255)" opacity="0.47"/>
  <circle cx="1336.2" cy="240.1" r="0.18" fill="rgb(180,225,255)" opacity="0.47"/>
  <circle cx="1270.3" cy="91.0" r="0.21" fill="rgb(248,250,252)" opacity="0.49"/>
  <circle cx="728.6" cy="367.8" r="0.42" fill="rgb(248,250,252)" opacity="0.32"/>
  <circle cx="1343.5" cy="327.1" r="1.34" fill="rgb(248,250,252)" opacity="0.67"/>
  <circle cx="31.7" cy="145.1" r="0.19" fill="rgb(248,250,252)" opacity="0.55"/>
  <circle cx="891.3" cy="304.5" r="0.45" fill="rgb(248,250,252)" opacity="0.54"/>
  <circle cx="1434.0" cy="13.3" r="0.93" fill="rgb(180,225,255)" opacity="0.63"/>
  <circle cx="717.6" cy="231.2" r="1.1" fill="rgb(248,250,252)" opacity="0.5"/>
  <circle cx="743.0" cy="42.6" r="0.34" fill="rgb(248,250,252)" opacity="0.5"/>
  <circle cx="1378.0" cy="165.3" r="0.35" fill="rgb(248,250,252)" opacity="0.65"/>
  <circle cx="559.9" cy="26.2" r="0.48" fill="rgb(248,250,252)" opacity="0.49"/>
  <circle cx="699.2" cy="99.2" r="0.63" fill="rgb(248,250,252)" opacity="0.62"/>
  <circle cx="1533.5" cy="188.6" r="0.35" fill="rgb(248,250,252)" opacity="0.51"/>
  <circle cx="248.8" cy="143.1" r="0.24" fill="rgb(248,250,252)" opacity="0.4"/>
  <circle cx="683.0" cy="99.2" r="0.1" fill="rgb(248,250,252)" opacity="0.46"/>
  <circle cx="471.7" cy="58.5" r="0.54" fill="rgb(248,250,252)" opacity="0.37"/>
  <circle cx="584.6" cy="8.8" r="0.32" fill="rgb(248,250,252)" opacity="0.3"/>
  <circle cx="1568.6" cy="93.5" r="0.64" fill="rgb(248,250,252)" opacity="0.52"/>
  <circle cx="1044.7" cy="188.8" r="0.29" fill="rgb(248,250,252)" opacity="0.22"/>
  <circle cx="1582.8" cy="58.1" r="0.16" fill="rgb(248,250,252)" opacity="0.58"/>
  <circle cx="1106.2" cy="197.7" r="1.05" fill="rgb(248,250,252)" opacity="0.36"/>
  <circle cx="331.8" cy="175.4" r="0.41" fill="rgb(248,250,252)" opacity="0.46"/>
  <circle cx="947.5" cy="99.3" r="0.24" fill="rgb(248,250,252)" opacity="0.6"/>
  <circle cx="653.2" cy="173.3" r="0.19" fill="rgb(248,250,252)" opacity="0.46"/>
  <circle cx="1503.7" cy="331.6" r="0.71" fill="rgb(248,250,252)" opacity="0.39"/>
  <circle cx="1131.3" cy="350.4" r="0.39" fill="rgb(248,250,252)" opacity="0.45"/>
  <circle cx="806.2" cy="129.5" r="0.21" fill="rgb(248,250,252)" opacity="0.52"/>
  <circle cx="974.2" cy="351.4" r="0.43" fill="rgb(248,250,252)" opacity="0.23"/>
  <circle cx="668.2" cy="45.0" r="0.32" fill="rgb(248,250,252)" opacity="0.23"/>
  <circle cx="553.2" cy="276.9" r="2.31" fill="rgb(248,250,252)" opacity="0.72"/>
  <circle cx="294.1" cy="160.4" r="0.37" fill="rgb(248,250,252)" opacity="0.5"/>
  <circle cx="1160.6" cy="22.8" r="0.24" fill="rgb(248,250,252)" opacity="0.35"/>
  <circle cx="1043.2" cy="191.4" r="0.41" fill="rgb(248,250,252)" opacity="0.6"/>
  <circle cx="481.2" cy="67.0" r="0.5" fill="rgb(248,250,252)" opacity="0.62"/>
  <circle cx="119.5" cy="162.3" r="0.36" fill="rgb(248,250,252)" opacity="0.5"/>
  <circle cx="696.2" cy="22.5" r="0.15" fill="rgb(180,225,255)" opacity="0.58"/>
  <circle cx="182.6" cy="38.2" r="0.14" fill="rgb(248,250,252)" opacity="0.61"/>
  <circle cx="536.2" cy="202.0" r="0.45" fill="rgb(248,250,252)" opacity="0.26"/>
  <circle cx="710.5" cy="297.3" r="0.2" fill="rgb(180,225,255)" opacity="0.41"/>
  <circle cx="1410.1" cy="378.4" r="0.38" fill="rgb(248,250,252)" opacity="0.3"/>
  <circle cx="1173.2" cy="98.4" r="0.55" fill="rgb(248,250,252)" opacity="0.62"/>
  <circle cx="681.7" cy="358.6" r="0.2" fill="rgb(248,250,252)" opacity="0.59"/>
  <circle cx="368.1" cy="340.0" r="1.23" fill="rgb(248,250,252)" opacity="0.89"/>
  <circle cx="1527.9" cy="247.0" r="0.41" fill="rgb(248,250,252)" opacity="0.62"/>
  <circle cx="746.2" cy="286.6" r="0.39" fill="rgb(248,250,252)" opacity="0.24"/>
  <circle cx="115.8" cy="284.9" r="0.33" fill="rgb(248,250,252)" opacity="0.38"/>
  <circle cx="1435.4" cy="0.6" r="2.16" fill="rgb(248,250,252)" opacity="0.66"/>
  <circle cx="649.2" cy="284.2" r="0.79" fill="rgb(180,225,255)" opacity="0.37"/>
  <circle cx="1276.7" cy="167.3" r="0.28" fill="rgb(248,250,252)" opacity="0.58"/>
  <circle cx="527.5" cy="128.9" r="0.34" fill="rgb(180,225,255)" opacity="0.52"/>
  <circle cx="1270.0" cy="371.8" r="0.12" fill="rgb(248,250,252)" opacity="0.54"/>
  <circle cx="199.8" cy="336.6" r="0.41" fill="rgb(248,250,252)" opacity="0.21"/>
  <circle cx="76.9" cy="21.4" r="0.11" fill="rgb(248,250,252)" opacity="0.2"/>
  <circle cx="385.7" cy="104.4" r="0.19" fill="rgb(248,250,252)" opacity="0.34"/>
  <circle cx="113.6" cy="3.2" r="0.13" fill="rgb(248,250,252)" opacity="0.45"/>
  <circle cx="1176.6" cy="294.1" r="0.4" fill="rgb(248,250,252)" opacity="0.44"/>
  <circle cx="798.8" cy="359.6" r="0.16" fill="rgb(248,250,252)" opacity="0.3"/>
  <circle cx="1520.3" cy="29.8" r="0.53" fill="rgb(248,250,252)" opacity="0.44"/>
  <circle cx="1468.1" cy="137.1" r="0.15" fill="rgb(248,250,252)" opacity="0.28"/>
  <circle cx="641.3" cy="206.4" r="0.27" fill="rgb(248,250,252)" opacity="0.52"/>
  <circle cx="301.8" cy="4.7" r="0.5" fill="rgb(248,250,252)" opacity="0.23"/>
  <circle cx="559.4" cy="174.4" r="0.35" fill="rgb(180,225,255)" opacity="0.3"/>
  <circle cx="575.5" cy="310.3" r="0.27" fill="rgb(248,250,252)" opacity="0.36"/>
  <circle cx="1573.3" cy="345.2" r="0.23" fill="rgb(248,250,252)" opacity="0.64"/>
  <circle cx="1272.6" cy="315.0" r="0.67" fill="rgb(248,250,252)" opacity="0.55"/>
  <circle cx="1120.7" cy="339.2" r="0.22" fill="rgb(248,250,252)" opacity="0.6"/>
  <circle cx="544.2" cy="361.4" r="0.13" fill="rgb(248,250,252)" opacity="0.33"/>
  <circle cx="1263.1" cy="329.7" r="1.02" fill="rgb(248,250,252)" opacity="0.2"/>
  <circle cx="124.2" cy="107.0" r="0.16" fill="rgb(248,250,252)" opacity="0.55"/>
  <circle cx="45.4" cy="94.7" r="0.38" fill="rgb(248,250,252)" opacity="0.49"/>
  <circle cx="444.2" cy="380.5" r="0.36" fill="rgb(248,250,252)" opacity="0.63"/>
  <circle cx="1325.0" cy="96.2" r="1.74" fill="rgb(248,250,252)" opacity="0.66"/>
  <circle cx="742.3" cy="163.1" r="0.23" fill="rgb(248,250,252)" opacity="0.47"/>
  <circle cx="1365.9" cy="185.8" r="0.59" fill="rgb(248,250,252)" opacity="0.53"/>
  <circle cx="768.2" cy="338.3" r="0.16" fill="rgb(248,250,252)" opacity="0.5"/>
  <circle cx="88.4" cy="392.9" r="0.18" fill="rgb(248,250,252)" opacity="0.41"/>
  <circle cx="1076.9" cy="13.9" r="0.17" fill="rgb(248,250,252)" opacity="0.28"/>
  <circle cx="314.0" cy="250.2" r="0.2" fill="rgb(248,250,252)" opacity="0.6"/>
  <circle cx="817.9" cy="222.4" r="0.13" fill="rgb(248,250,252)" opacity="0.47"/>
  <circle cx="307.8" cy="294.4" r="0.44" fill="rgb(180,225,255)" opacity="0.57"/>
  <circle cx="1413.1" cy="294.4" r="0.68" fill="rgb(248,250,252)" opacity="0.52"/>
  <circle cx="1366.3" cy="279.5" r="0.3" fill="rgb(180,225,255)" opacity="0.32"/>
  <circle cx="516.2" cy="329.3" r="0.13" fill="rgb(248,250,252)" opacity="0.57"/>
  <circle cx="924.2" cy="150.6" r="0.84" fill="rgb(248,250,252)" opacity="0.57"/>
  <circle cx="434.6" cy="7.0" r="0.39" fill="rgb(180,225,255)" opacity="0.22"/>
  <circle cx="963.1" cy="248.9" r="0.42" fill="rgb(248,250,252)" opacity="0.46"/>
  <circle cx="1446.4" cy="50.1" r="0.88" fill="rgb(248,250,252)" opacity="0.58"/>
  <circle cx="226.9" cy="271.0" r="0.76" fill="rgb(248,250,252)" opacity="0.62"/>
  <circle cx="827.9" cy="271.8" r="1.03" fill="rgb(248,250,252)" opacity="0.58"/>
  <circle cx="766.8" cy="12.5" r="1.02" fill="rgb(248,250,252)" opacity="0.21"/>
  <circle cx="1452.6" cy="361.2" r="0.14" fill="rgb(248,250,252)" opacity="0.21"/>
  <circle cx="866.8" cy="77.7" r="0.44" fill="rgb(180,225,255)" opacity="0.35"/>
  <circle cx="62.9" cy="22.6" r="0.34" fill="rgb(248,250,252)" opacity="0.64"/>
  <circle cx="56.0" cy="153.5" r="0.44" fill="rgb(248,250,252)" opacity="0.28"/>
  <circle cx="668.6" cy="273.3" r="0.33" fill="rgb(248,250,252)" opacity="0.43"/>
  <circle cx="9.5" cy="164.0" r="0.2" fill="rgb(248,250,252)" opacity="0.22"/>
  <circle cx="787.0" cy="253.3" r="1.1" fill="rgb(248,250,252)" opacity="0.2"/>
  <circle cx="1154.8" cy="215.0" r="1.18" fill="rgb(248,250,252)" opacity="0.77"/>
  <circle cx="206.3" cy="160.7" r="0.11" fill="rgb(248,250,252)" opacity="0.34"/>
  <circle cx="383.2" cy="252.9" r="0.33" fill="rgb(180,225,255)" opacity="0.26"/>
  <circle cx="235.4" cy="227.7" r="0.54" fill="rgb(248,250,252)" opacity="0.21"/>
  <circle cx="891.5" cy="190.5" r="0.64" fill="rgb(248,250,252)" opacity="0.36"/>
  <circle cx="651.6" cy="102.1" r="0.84" fill="rgb(248,250,252)" opacity="0.4"/>
  <circle cx="56.1" cy="40.4" r="2.22" fill="rgb(248,250,252)" opacity="0.79"/>
  <circle cx="1202.2" cy="215.9" r="0.37" fill="rgb(248,250,252)" opacity="0.45"/>
  <circle cx="1384.3" cy="378.5" r="0.42" fill="rgb(248,250,252)" opacity="0.31"/>
  <circle cx="1482.6" cy="313.7" r="0.31" fill="rgb(248,250,252)" opacity="0.52"/>
  <circle cx="1028.9" cy="71.8" r="2.07" fill="rgb(248,250,252)" opacity="0.87"/>
  <circle cx="473.1" cy="308.2" r="0.18" fill="rgb(180,225,255)" opacity="0.36"/>
  <circle cx="670.6" cy="328.9" r="0.21" fill="rgb(248,250,252)" opacity="0.25"/>
  <circle cx="1485.8" cy="67.6" r="0.28" fill="rgb(248,250,252)" opacity="0.33"/>
  <circle cx="161.5" cy="339.2" r="1.97" fill="rgb(248,250,252)" opacity="0.85"/>
  <rect width="1584" height="396" fill="url(#neb_blue)"/>
  <rect width="1584" height="396" fill="url(#neb_mag)"/>
  <rect width="1584" height="396" fill="url(#neb_core)"/>
  <rect width="1584" height="396" fill="url(#vig)"/>

  <rect x="1579" y="0" width="5" height="396" fill="#FF6B35"/>
  <line x1="0" y1="338" x2="1584" y2="338" stroke="#1E3050" stroke-width="0.5"/>

  <text x="1512" y="118" class="eyebrow" text-anchor="end">E-LEARNING DEVELOPER  ·  INSTRUCTIONAL DESIGN  ·  MULTIMEDIA PRODUCTION</text>
  <text x="1512" y="206" class="name" text-anchor="end">ADAM LEIBLER</text>
  <rect x="1082" y="218" width="430" height="2" fill="#FF6B35"/>
  <text x="1512" y="254" class="tagline" text-anchor="end">I Design Learning Experiences</text>
  <text x="1512" y="288" class="tagline-hi" text-anchor="end">That Actually Change Behavior.</text>
  <text x="1512" y="372" class="url" text-anchor="end">adamleibler.com</text>

  <rect x="72" y="128" width="248" height="54" rx="3" fill="none" stroke="#FF6B35" stroke-opacity="0.7" stroke-width="1"/>
  <text x="196" y="162" class="badge-text" text-anchor="middle">AI FLUENT</text>
  <line x1="72" y1="210" x2="320" y2="210" stroke="#1E3050" stroke-width="0.5"/>
  <text x="72" y="234" class="cred" text-anchor="start">U.S. ARMY VETERAN</text>
  <text x="72" y="256" class="cred" text-anchor="start">TWITCH PARTNER</text>
  <text x="72" y="278" class="cred" text-anchor="start">U OF L</text>
</svg>